# Blender v2.90.1 OBJ File: 'Graphics tank.blend'
# www.blender.org
mtllib 3.mtl
o Text
v 0.220304 0.100000 0.510014
v 0.113778 0.100000 0.581233
v -0.013812 0.100000 0.604972
v -0.112742 0.100000 0.594095
v -0.200967 0.100000 0.561464
v -0.279005 0.100000 0.500863
v -0.326657 0.100000 0.419889
v -0.329765 0.100000 0.407631
v -0.330801 0.100000 0.395718
v -0.325535 0.100000 0.370425
v -0.309738 0.100000 0.349793
v -0.287034 0.100000 0.336067
v -0.261050 0.100000 0.331492
v -0.235325 0.100000 0.337880
v -0.213398 0.100000 0.357044
v -0.181630 0.100000 0.404696
v -0.152452 0.100000 0.434306
v -0.114641 0.100000 0.455456
v -0.068370 0.100000 0.468146
v -0.013812 0.100000 0.472376
v 0.056802 0.100000 0.460635
v 0.118094 0.100000 0.425414
v 0.163156 0.100000 0.370166
v 0.178177 0.100000 0.303867
v 0.159012 0.100000 0.210117
v 0.101519 0.100000 0.137431
v 0.022790 0.100000 0.094095
v -0.078039 0.100000 0.071823
v -0.135532 0.100000 0.052486
v -0.154696 0.100000 0.009668
v -0.139675 0.100000 -0.026243
v -0.094613 0.100000 -0.052486
v 0.070442 0.100000 -0.093232
v 0.112224 0.100000 -0.113519
v 0.142265 0.100000 -0.139848
v 0.160566 0.100000 -0.172393
v 0.167127 0.100000 -0.211326
v 0.156077 0.100000 -0.266229
v 0.120166 0.100000 -0.309392
v 0.059565 0.100000 -0.338398
v -0.021409 0.100000 -0.348066
v -0.067680 0.100000 -0.342369
v -0.112569 0.100000 -0.325276
v -0.190608 0.100000 -0.276243
v -0.211153 0.100000 -0.265366
v -0.227210 0.100000 -0.261740
v -0.252849 0.100000 -0.267006
v -0.274517 0.100000 -0.282804
v -0.289278 0.100000 -0.305335
v -0.294199 0.100000 -0.330801
v -0.267783 0.100000 -0.384323
v -0.188536 0.100000 -0.435773
v -0.104800 0.100000 -0.469441
v -0.037293 0.100000 -0.480663
v 0.095822 0.100000 -0.464261
v 0.198204 0.100000 -0.415055
v 0.268128 0.100000 -0.329593
v 0.291436 0.100000 -0.214088
v 0.258633 0.100000 -0.079420
v 0.160221 0.100000 -0.000000
v 0.147617 0.100000 0.004834
v 0.133287 0.100000 0.009668
v 0.213570 0.100000 0.051882
v 0.270718 0.100000 0.110842
v 0.304903 0.100000 0.186550
v 0.316298 0.100000 0.279005
v 0.292300 0.100000 0.404782
v 0.220304 -0.100000 0.510014
v 0.113778 -0.100000 0.581233
v -0.013812 -0.100000 0.604972
v -0.112742 -0.100000 0.594095
v -0.200967 -0.100000 0.561464
v -0.279005 -0.100000 0.500863
v -0.326657 -0.100000 0.419889
v -0.329765 -0.100000 0.407631
v -0.330801 -0.100000 0.395718
v -0.325535 -0.100000 0.370425
v -0.309738 -0.100000 0.349793
v -0.287034 -0.100000 0.336067
v -0.261050 -0.100000 0.331492
v -0.235325 -0.100000 0.337880
v -0.213398 -0.100000 0.357044
v -0.181630 -0.100000 0.404696
v -0.152452 -0.100000 0.434306
v -0.114641 -0.100000 0.455456
v -0.068370 -0.100000 0.468146
v -0.013812 -0.100000 0.472376
v 0.056802 -0.100000 0.460635
v 0.118094 -0.100000 0.425414
v 0.163156 -0.100000 0.370166
v 0.178177 -0.100000 0.303867
v 0.159012 -0.100000 0.210117
v 0.101519 -0.100000 0.137431
v 0.022790 -0.100000 0.094095
v -0.078039 -0.100000 0.071823
v -0.135532 -0.100000 0.052486
v -0.154696 -0.100000 0.009668
v -0.139675 -0.100000 -0.026243
v -0.094613 -0.100000 -0.052486
v 0.070442 -0.100000 -0.093232
v 0.112224 -0.100000 -0.113519
v 0.142265 -0.100000 -0.139848
v 0.160566 -0.100000 -0.172393
v 0.167127 -0.100000 -0.211326
v 0.156077 -0.100000 -0.266229
v 0.120166 -0.100000 -0.309392
v 0.059565 -0.100000 -0.338398
v -0.021409 -0.100000 -0.348066
v -0.067680 -0.100000 -0.342369
v -0.112569 -0.100000 -0.325276
v -0.190608 -0.100000 -0.276243
v -0.211153 -0.100000 -0.265366
v -0.227210 -0.100000 -0.261740
v -0.252849 -0.100000 -0.267006
v -0.274517 -0.100000 -0.282804
v -0.289278 -0.100000 -0.305335
v -0.294199 -0.100000 -0.330801
v -0.267783 -0.100000 -0.384323
v -0.188536 -0.100000 -0.435773
v -0.104800 -0.100000 -0.469441
v -0.037293 -0.100000 -0.480663
v 0.095822 -0.100000 -0.464261
v 0.198204 -0.100000 -0.415055
v 0.268128 -0.100000 -0.329593
v 0.291436 -0.100000 -0.214088
v 0.258633 -0.100000 -0.079420
v 0.160221 -0.100000 -0.000000
v 0.147617 -0.100000 0.004834
v 0.133287 -0.100000 0.009668
v 0.213570 -0.100000 0.051882
v 0.270718 -0.100000 0.110842
v 0.304903 -0.100000 0.186550
v 0.316298 -0.100000 0.279005
v 0.292300 -0.100000 0.404782
v 0.220304 -0.100000 0.510014
v 0.220304 0.100000 0.510014
v 0.113778 -0.100000 0.581233
v 0.113778 0.100000 0.581233
v -0.013812 -0.100000 0.604972
v -0.013812 0.100000 0.604972
v -0.112742 -0.100000 0.594095
v -0.112742 0.100000 0.594095
v -0.200967 -0.100000 0.561464
v -0.200967 0.100000 0.561464
v -0.279005 -0.100000 0.500863
v -0.279005 0.100000 0.500863
v -0.326657 -0.100000 0.419889
v -0.326657 0.100000 0.419889
v -0.329765 -0.100000 0.407631
v -0.329765 0.100000 0.407631
v -0.330801 -0.100000 0.395718
v -0.330801 0.100000 0.395718
v -0.325535 -0.100000 0.370425
v -0.325535 0.100000 0.370425
v -0.309738 -0.100000 0.349793
v -0.309738 0.100000 0.349793
v -0.287034 -0.100000 0.336067
v -0.287034 0.100000 0.336067
v -0.261050 -0.100000 0.331492
v -0.261050 0.100000 0.331492
v -0.235325 -0.100000 0.337880
v -0.235325 0.100000 0.337880
v -0.213398 -0.100000 0.357044
v -0.213398 0.100000 0.357044
v -0.181630 -0.100000 0.404696
v -0.181630 0.100000 0.404696
v -0.152452 -0.100000 0.434306
v -0.152452 0.100000 0.434306
v -0.114641 -0.100000 0.455456
v -0.114641 0.100000 0.455456
v -0.068370 -0.100000 0.468146
v -0.068370 0.100000 0.468146
v -0.013812 -0.100000 0.472376
v -0.013812 0.100000 0.472376
v 0.056802 -0.100000 0.460635
v 0.056802 0.100000 0.460635
v 0.118094 -0.100000 0.425414
v 0.118094 0.100000 0.425414
v 0.163156 -0.100000 0.370166
v 0.163156 0.100000 0.370166
v 0.178177 -0.100000 0.303867
v 0.178177 0.100000 0.303867
v 0.159012 -0.100000 0.210117
v 0.159012 0.100000 0.210117
v 0.101519 -0.100000 0.137431
v 0.101519 0.100000 0.137431
v 0.022790 -0.100000 0.094095
v 0.022790 0.100000 0.094095
v -0.078039 -0.100000 0.071823
v -0.078039 0.100000 0.071823
v -0.135532 -0.100000 0.052486
v -0.135532 0.100000 0.052486
v -0.154696 -0.100000 0.009668
v -0.154696 0.100000 0.009668
v -0.139675 -0.100000 -0.026243
v -0.139675 0.100000 -0.026243
v -0.094613 -0.100000 -0.052486
v -0.094613 0.100000 -0.052486
v 0.070442 -0.100000 -0.093232
v 0.070442 0.100000 -0.093232
v 0.112224 -0.100000 -0.113519
v 0.112224 0.100000 -0.113519
v 0.142265 -0.100000 -0.139848
v 0.142265 0.100000 -0.139848
v 0.160566 -0.100000 -0.172393
v 0.160566 0.100000 -0.172393
v 0.167127 -0.100000 -0.211326
v 0.167127 0.100000 -0.211326
v 0.156077 -0.100000 -0.266229
v 0.156077 0.100000 -0.266229
v 0.120166 -0.100000 -0.309392
v 0.120166 0.100000 -0.309392
v 0.059565 -0.100000 -0.338398
v 0.059565 0.100000 -0.338398
v -0.021409 -0.100000 -0.348066
v -0.021409 0.100000 -0.348066
v -0.067680 -0.100000 -0.342369
v -0.067680 0.100000 -0.342369
v -0.112569 -0.100000 -0.325276
v -0.112569 0.100000 -0.325276
v -0.190608 -0.100000 -0.276243
v -0.190608 0.100000 -0.276243
v -0.211153 -0.100000 -0.265366
v -0.211153 0.100000 -0.265366
v -0.227210 -0.100000 -0.261740
v -0.227210 0.100000 -0.261740
v -0.252849 -0.100000 -0.267006
v -0.252849 0.100000 -0.267006
v -0.274517 -0.100000 -0.282804
v -0.274517 0.100000 -0.282804
v -0.289278 -0.100000 -0.305335
v -0.289278 0.100000 -0.305335
v -0.294199 -0.100000 -0.330801
v -0.294199 0.100000 -0.330801
v -0.267783 -0.100000 -0.384323
v -0.267783 0.100000 -0.384323
v -0.188536 -0.100000 -0.435773
v -0.188536 0.100000 -0.435773
v -0.104800 -0.100000 -0.469441
v -0.104800 0.100000 -0.469441
v -0.037293 -0.100000 -0.480663
v -0.037293 0.100000 -0.480663
v 0.095822 -0.100000 -0.464261
v 0.095822 0.100000 -0.464261
v 0.198204 -0.100000 -0.415055
v 0.198204 0.100000 -0.415055
v 0.268128 -0.100000 -0.329593
v 0.268128 0.100000 -0.329593
v 0.291436 -0.100000 -0.214088
v 0.291436 0.100000 -0.214088
v 0.258633 -0.100000 -0.079420
v 0.258633 0.100000 -0.079420
v 0.160221 -0.100000 -0.000000
v 0.160221 0.100000 -0.000000
v 0.147617 -0.100000 0.004834
v 0.147617 0.100000 0.004834
v 0.133287 -0.100000 0.009668
v 0.133287 0.100000 0.009668
v 0.213570 -0.100000 0.051882
v 0.213570 0.100000 0.051882
v 0.270718 -0.100000 0.110842
v 0.270718 0.100000 0.110842
v 0.304903 -0.100000 0.186550
v 0.304903 0.100000 0.186550
v 0.316298 -0.100000 0.279005
v 0.316298 0.100000 0.279005
v 0.292300 -0.100000 0.404782
v 0.292300 0.100000 0.404782
vt 0.787879 0.000000
vt 0.818182 0.000000
vt 0.803030 0.000000
vt 0.772727 0.000000
vt 0.833333 0.000000
vt 0.757576 0.000000
vt 0.848485 0.000000
vt 0.742424 0.000000
vt 0.606061 0.000000
vt 0.621212 0.000000
vt 0.590909 0.000000
vt 0.636364 0.000000
vt 0.575758 0.000000
vt 0.727273 0.000000
vt 0.863636 0.000000
vt 0.651515 0.000000
vt 0.560606 0.000000
vt 0.712121 0.000000
vt 0.696970 0.000000
vt 0.666667 0.000000
vt 0.681818 0.000000
vt 0.545455 0.000000
vt 0.878788 0.000000
vt 0.530303 0.000000
vt 0.515152 0.000000
vt 0.500000 0.000000
vt 0.484848 0.000000
vt 0.469697 0.000000
vt 0.893939 0.000000
vt 0.454545 0.000000
vt 0.439394 0.000000
vt 0.909091 0.000000
vt 0.924242 0.000000
vt 0.424242 0.000000
vt 0.939394 0.000000
vt 0.954545 0.000000
vt 0.409091 0.000000
vt 0.393939 0.000000
vt 0.378788 0.000000
vt 0.969697 0.000000
vt 0.363636 0.000000
vt 0.984848 0.000000
vt 0.348485 0.000000
vt 1.000000 0.000000
vt 0.333333 0.000000
vt 0.166667 0.000000
vt 0.196970 0.000000
vt 0.181818 0.000000
vt 0.151515 0.000000
vt 0.212121 0.000000
vt 0.136364 0.000000
vt 0.227273 0.000000
vt 0.318182 0.000000
vt 0.121212 0.000000
vt 0.106061 0.000000
vt 0.242424 0.000000
vt 0.000000 0.000000
vt 0.090909 0.000000
vt 0.075758 0.000000
vt 0.303030 0.000000
vt 0.257576 0.000000
vt 0.272727 0.000000
vt 0.287879 0.000000
vt 0.060606 0.000000
vt 0.015152 0.000000
vt 0.045455 0.000000
vt 0.030303 0.000000
vt 0.818182 0.000000
vt 0.787879 0.000000
vt 0.803030 0.000000
vt 0.772727 0.000000
vt 0.833333 0.000000
vt 0.757576 0.000000
vt 0.848485 0.000000
vt 0.606061 0.000000
vt 0.742424 0.000000
vt 0.621212 0.000000
vt 0.590909 0.000000
vt 0.636364 0.000000
vt 0.575758 0.000000
vt 0.727273 0.000000
vt 0.863636 0.000000
vt 0.651515 0.000000
vt 0.560606 0.000000
vt 0.712121 0.000000
vt 0.696970 0.000000
vt 0.666667 0.000000
vt 0.681818 0.000000
vt 0.545455 0.000000
vt 0.878788 0.000000
vt 0.530303 0.000000
vt 0.515152 0.000000
vt 0.500000 0.000000
vt 0.484848 0.000000
vt 0.469697 0.000000
vt 0.893939 0.000000
vt 0.454545 0.000000
vt 0.439394 0.000000
vt 0.909091 0.000000
vt 0.924242 0.000000
vt 0.424242 0.000000
vt 0.939394 0.000000
vt 0.954545 0.000000
vt 0.409091 0.000000
vt 0.393939 0.000000
vt 0.378788 0.000000
vt 0.969697 0.000000
vt 0.363636 0.000000
vt 0.984848 0.000000
vt 0.348485 0.000000
vt 1.000000 0.000000
vt 0.333333 0.000000
vt 0.196970 0.000000
vt 0.166667 0.000000
vt 0.181818 0.000000
vt 0.151515 0.000000
vt 0.212121 0.000000
vt 0.136364 0.000000
vt 0.227273 0.000000
vt 0.318182 0.000000
vt 0.121212 0.000000
vt 0.106061 0.000000
vt 0.242424 0.000000
vt 0.000000 0.000000
vt 0.090909 0.000000
vt 0.075758 0.000000
vt 0.303030 0.000000
vt 0.257576 0.000000
vt 0.272727 0.000000
vt 0.287879 0.000000
vt 0.060606 0.000000
vt 0.015152 0.000000
vt 0.045455 0.000000
vt 0.030303 0.000000
vt 0.000000 1.000000
vt 0.014925 1.000000
vt 0.014925 0.000000
vt 0.000000 0.000000
vt 0.029851 1.000000
vt 0.029851 0.000000
vt 0.044776 1.000000
vt 0.044776 0.000000
vt 0.059701 1.000000
vt 0.059701 0.000000
vt 0.074627 1.000000
vt 0.074627 0.000000
vt 0.089552 1.000000
vt 0.089552 0.000000
vt 0.104478 1.000000
vt 0.104478 0.000000
vt 0.119403 1.000000
vt 0.119403 0.000000
vt 0.134328 1.000000
vt 0.134328 0.000000
vt 0.149254 1.000000
vt 0.149254 0.000000
vt 0.164179 1.000000
vt 0.164179 0.000000
vt 0.179104 1.000000
vt 0.179104 0.000000
vt 0.194030 1.000000
vt 0.194030 0.000000
vt 0.208955 1.000000
vt 0.208955 0.000000
vt 0.223881 1.000000
vt 0.223881 0.000000
vt 0.238806 1.000000
vt 0.238806 0.000000
vt 0.253731 1.000000
vt 0.253731 0.000000
vt 0.268657 1.000000
vt 0.268657 0.000000
vt 0.283582 1.000000
vt 0.283582 0.000000
vt 0.298507 1.000000
vt 0.298507 0.000000
vt 0.313433 1.000000
vt 0.313433 0.000000
vt 0.328358 1.000000
vt 0.328358 0.000000
vt 0.343284 1.000000
vt 0.343284 0.000000
vt 0.358209 1.000000
vt 0.358209 0.000000
vt 0.373134 1.000000
vt 0.373134 0.000000
vt 0.388060 1.000000
vt 0.388060 0.000000
vt 0.402985 1.000000
vt 0.402985 0.000000
vt 0.417910 1.000000
vt 0.417910 0.000000
vt 0.432836 1.000000
vt 0.432836 0.000000
vt 0.447761 1.000000
vt 0.447761 0.000000
vt 0.462687 1.000000
vt 0.462687 0.000000
vt 0.477612 1.000000
vt 0.477612 0.000000
vt 0.492537 1.000000
vt 0.492537 0.000000
vt 0.507463 1.000000
vt 0.507463 0.000000
vt 0.522388 1.000000
vt 0.522388 0.000000
vt 0.537313 1.000000
vt 0.537313 0.000000
vt 0.552239 1.000000
vt 0.552239 0.000000
vt 0.567164 1.000000
vt 0.567164 0.000000
vt 0.582090 1.000000
vt 0.582090 0.000000
vt 0.597015 1.000000
vt 0.597015 0.000000
vt 0.611940 1.000000
vt 0.611940 0.000000
vt 0.626866 1.000000
vt 0.626866 0.000000
vt 0.641791 1.000000
vt 0.641791 0.000000
vt 0.656716 1.000000
vt 0.656716 0.000000
vt 0.671642 1.000000
vt 0.671642 0.000000
vt 0.686567 1.000000
vt 0.686567 0.000000
vt 0.701493 1.000000
vt 0.701493 0.000000
vt 0.716418 1.000000
vt 0.716418 0.000000
vt 0.731343 1.000000
vt 0.731343 0.000000
vt 0.746269 1.000000
vt 0.746269 0.000000
vt 0.761194 1.000000
vt 0.761194 0.000000
vt 0.776119 1.000000
vt 0.776119 0.000000
vt 0.791045 1.000000
vt 0.791045 0.000000
vt 0.805970 1.000000
vt 0.805970 0.000000
vt 0.820895 1.000000
vt 0.820895 0.000000
vt 0.835821 1.000000
vt 0.835821 0.000000
vt 0.850746 1.000000
vt 0.850746 0.000000
vt 0.865672 1.000000
vt 0.865672 0.000000
vt 0.880597 1.000000
vt 0.880597 0.000000
vt 0.895522 1.000000
vt 0.895522 0.000000
vt 0.910448 1.000000
vt 0.910448 0.000000
vt 0.925373 1.000000
vt 0.925373 0.000000
vt 0.940298 1.000000
vt 0.940298 0.000000
vt 0.955224 1.000000
vt 0.955224 0.000000
vt 0.970149 1.000000
vt 0.970149 0.000000
vt 0.985075 1.000000
vt 0.985075 0.000000
vt 1.000000 1.000000
vt 1.000000 0.000000
vn 0.0000 1.0000 0.0000
vn 0.0000 -1.0000 0.0000
vn 0.7033 0.0000 0.7109
vn 0.3771 0.0000 0.9262
vn 0.0372 0.0000 0.9993
vn -0.2298 0.0000 0.9732
vn -0.4858 0.0000 0.8741
vn -0.7510 0.0000 0.6603
vn -0.9249 0.0000 0.3803
vn -0.9860 0.0000 0.1667
vn -0.9982 0.0000 -0.0592
vn -0.9092 0.0000 -0.4163
vn -0.6673 0.0000 -0.7448
vn -0.3514 0.0000 -0.9362
vn 0.0345 0.0000 -0.9994
vn 0.4625 0.0000 -0.8866
vn 0.7516 0.0000 -0.6596
vn 0.7757 0.0000 -0.6311
vn 0.6063 0.0000 -0.7953
vn 0.3791 0.0000 -0.9253
vn 0.1717 0.0000 -0.9851
vn -0.0437 0.0000 -0.9990
vn -0.3364 0.0000 -0.9417
vn -0.6473 0.0000 -0.7622
vn -0.8989 0.0000 -0.4381
vn -0.9999 0.0000 -0.0106
vn -0.9067 0.0000 0.4218
vn -0.6460 0.0000 0.7633
vn -0.3525 0.0000 0.9358
vn -0.2676 0.0000 0.9635
vn -0.6722 0.0000 0.7403
vn -0.9999 0.0000 0.0123
vn -0.7519 0.0000 -0.6592
vn -0.3753 0.0000 -0.9269
vn -0.3401 0.0000 -0.9404
vn -0.5529 0.0000 -0.8332
vn -0.7765 0.0000 -0.6301
vn -0.9429 0.0000 -0.3331
vn -0.9998 0.0000 0.0158
vn -0.9020 0.0000 0.4316
vn -0.6144 0.0000 0.7890
vn -0.2788 0.0000 0.9603
vn 0.0018 0.0000 1.0000
vn 0.2408 0.0000 0.9705
vn 0.4461 0.0000 0.8950
vn 0.5003 0.0000 0.8658
vn 0.3471 0.0000 0.9378
vn 0.0097 0.0000 0.9999
vn -0.4043 0.0000 0.9146
vn -0.7245 0.0000 0.6892
vn -0.9266 0.0000 0.3760
vn -0.9911 0.0000 -0.1334
vn -0.7473 0.0000 -0.6644
vn -0.4609 0.0000 -0.8874
vn -0.2701 0.0000 -0.9628
vn -0.0211 0.0000 -0.9998
vn 0.2814 0.0000 -0.9596
vn 0.6182 0.0000 -0.7859
vn 0.9037 0.0000 -0.4281
vn 0.9998 0.0000 0.0199
vn 0.8444 0.0000 0.5357
vn 0.4992 0.0000 0.8665
vn 0.3389 0.0000 0.9408
vn 0.9968 0.0000 0.0793
vn 0.5992 0.0000 -0.8006
vn 0.8270 0.0000 -0.5621
vn 0.9629 0.0000 -0.2700
vn 0.9995 0.0000 0.0329
vn 0.9232 0.0000 0.3841
usemtl None
s off
f 53/1/1 55/2/1 54/3/1
f 52/4/1 55/2/1 53/1/1
f 52/4/1 56/5/1 55/2/1
f 51/6/1 56/5/1 52/4/1
f 51/6/1 57/7/1 56/5/1
f 50/8/1 41/9/1 51/6/1
f 41/9/1 57/7/1 51/6/1
f 50/8/1 42/10/1 41/9/1
f 40/11/1 57/7/1 41/9/1
f 50/8/1 43/12/1 42/10/1
f 39/13/1 57/7/1 40/11/1
f 49/14/1 43/12/1 50/8/1
f 39/13/1 58/15/1 57/7/1
f 49/14/1 44/16/1 43/12/1
f 38/17/1 58/15/1 39/13/1
f 48/18/1 44/16/1 49/14/1
f 47/19/1 44/16/1 48/18/1
f 47/19/1 45/20/1 44/16/1
f 46/21/1 45/20/1 47/19/1
f 37/22/1 58/15/1 38/17/1
f 37/22/1 59/23/1 58/15/1
f 36/24/1 59/23/1 37/22/1
f 35/25/1 59/23/1 36/24/1
f 34/26/1 59/23/1 35/25/1
f 33/27/1 59/23/1 34/26/1
f 32/28/1 59/23/1 33/27/1
f 32/28/1 60/29/1 59/23/1
f 31/30/1 60/29/1 32/28/1
f 30/31/1 60/29/1 31/30/1
f 30/31/1 61/32/1 60/29/1
f 30/31/1 62/33/1 61/32/1
f 29/34/1 62/33/1 30/31/1
f 29/34/1 63/35/1 62/33/1
f 29/34/1 64/36/1 63/35/1
f 28/37/1 64/36/1 29/34/1
f 27/38/1 64/36/1 28/37/1
f 26/39/1 64/36/1 27/38/1
f 26/39/1 65/40/1 64/36/1
f 25/41/1 65/40/1 26/39/1
f 25/41/1 66/42/1 65/40/1
f 24/43/1 66/42/1 25/41/1
f 24/43/1 67/44/1 66/42/1
f 23/45/1 67/44/1 24/43/1
f 12/46/1 14/47/1 13/48/1
f 11/49/1 14/47/1 12/46/1
f 11/49/1 15/50/1 14/47/1
f 10/51/1 15/50/1 11/49/1
f 10/51/1 16/52/1 15/50/1
f 22/53/1 67/44/1 23/45/1
f 9/54/1 16/52/1 10/51/1
f 8/55/1 16/52/1 9/54/1
f 8/55/1 17/56/1 16/52/1
f 22/53/1 1/57/1 67/44/1
f 7/58/1 17/56/1 8/55/1
f 6/59/1 17/56/1 7/58/1
f 21/60/1 1/57/1 22/53/1
f 6/59/1 18/61/1 17/56/1
f 6/59/1 19/62/1 18/61/1
f 20/63/1 1/57/1 21/60/1
f 6/59/1 20/63/1 19/62/1
f 6/59/1 1/57/1 20/63/1
f 5/64/1 1/57/1 6/59/1
f 5/64/1 2/65/1 1/57/1
f 4/66/1 2/65/1 5/64/1
f 4/66/1 3/67/1 2/65/1
f 122/68/2 120/69/2 121/70/2
f 122/68/2 119/71/2 120/69/2
f 123/72/2 119/71/2 122/68/2
f 123/72/2 118/73/2 119/71/2
f 124/74/2 118/73/2 123/72/2
f 108/75/2 117/76/2 118/73/2
f 124/74/2 108/75/2 118/73/2
f 109/77/2 117/76/2 108/75/2
f 124/74/2 107/78/2 108/75/2
f 110/79/2 117/76/2 109/77/2
f 124/74/2 106/80/2 107/78/2
f 110/79/2 116/81/2 117/76/2
f 125/82/2 106/80/2 124/74/2
f 111/83/2 116/81/2 110/79/2
f 125/82/2 105/84/2 106/80/2
f 111/83/2 115/85/2 116/81/2
f 111/83/2 114/86/2 115/85/2
f 112/87/2 114/86/2 111/83/2
f 112/87/2 113/88/2 114/86/2
f 125/82/2 104/89/2 105/84/2
f 126/90/2 104/89/2 125/82/2
f 126/90/2 103/91/2 104/89/2
f 126/90/2 102/92/2 103/91/2
f 126/90/2 101/93/2 102/92/2
f 126/90/2 100/94/2 101/93/2
f 126/90/2 99/95/2 100/94/2
f 127/96/2 99/95/2 126/90/2
f 127/96/2 98/97/2 99/95/2
f 127/96/2 97/98/2 98/97/2
f 128/99/2 97/98/2 127/96/2
f 129/100/2 97/98/2 128/99/2
f 129/100/2 96/101/2 97/98/2
f 130/102/2 96/101/2 129/100/2
f 131/103/2 96/101/2 130/102/2
f 131/103/2 95/104/2 96/101/2
f 131/103/2 94/105/2 95/104/2
f 131/103/2 93/106/2 94/105/2
f 132/107/2 93/106/2 131/103/2
f 132/107/2 92/108/2 93/106/2
f 133/109/2 92/108/2 132/107/2
f 133/109/2 91/110/2 92/108/2
f 134/111/2 91/110/2 133/109/2
f 134/111/2 90/112/2 91/110/2
f 81/113/2 79/114/2 80/115/2
f 81/113/2 78/116/2 79/114/2
f 82/117/2 78/116/2 81/113/2
f 82/117/2 77/118/2 78/116/2
f 83/119/2 77/118/2 82/117/2
f 134/111/2 89/120/2 90/112/2
f 83/119/2 76/121/2 77/118/2
f 83/119/2 75/122/2 76/121/2
f 84/123/2 75/122/2 83/119/2
f 68/124/2 89/120/2 134/111/2
f 84/123/2 74/125/2 75/122/2
f 84/123/2 73/126/2 74/125/2
f 68/124/2 88/127/2 89/120/2
f 85/128/2 73/126/2 84/123/2
f 86/129/2 73/126/2 85/128/2
f 68/124/2 87/130/2 88/127/2
f 87/130/2 73/126/2 86/129/2
f 68/124/2 73/126/2 87/130/2
f 68/124/2 72/131/2 73/126/2
f 69/132/2 72/131/2 68/124/2
f 69/132/2 71/133/2 72/131/2
f 70/134/2 71/133/2 69/132/2
s 1
f 136/135/3 138/136/4 137/137/4 135/138/3
f 138/136/4 140/139/5 139/140/5 137/137/4
f 140/139/5 142/141/6 141/142/6 139/140/5
f 142/141/6 144/143/7 143/144/7 141/142/6
f 144/143/7 146/145/8 145/146/8 143/144/7
f 146/145/8 148/147/9 147/148/9 145/146/8
f 148/147/9 150/149/10 149/150/10 147/148/9
f 150/149/10 152/151/11 151/152/11 149/150/10
f 152/151/11 154/153/12 153/154/12 151/152/11
f 154/153/12 156/155/13 155/156/13 153/154/12
f 156/155/13 158/157/14 157/158/14 155/156/13
f 158/157/14 160/159/15 159/160/15 157/158/14
f 160/159/15 162/161/16 161/162/16 159/160/15
f 162/161/16 164/163/17 163/164/17 161/162/16
f 164/163/17 166/165/18 165/166/18 163/164/17
f 166/165/18 168/167/19 167/168/19 165/166/18
f 168/167/19 170/169/20 169/170/20 167/168/19
f 170/169/20 172/171/21 171/172/21 169/170/20
f 172/171/21 174/173/22 173/174/22 171/172/21
f 174/173/22 176/175/23 175/176/23 173/174/22
f 176/175/23 178/177/24 177/178/24 175/176/23
f 178/177/24 180/179/25 179/180/25 177/178/24
f 180/179/25 182/181/26 181/182/26 179/180/25
f 182/181/26 184/183/27 183/184/27 181/182/26
f 184/183/27 186/185/28 185/186/28 183/184/27
f 186/185/28 188/187/29 187/188/29 185/186/28
f 188/187/29 190/189/30 189/190/30 187/188/29
f 190/189/30 192/191/31 191/192/31 189/190/30
f 192/191/31 194/193/32 193/194/32 191/192/31
f 194/193/32 196/195/33 195/196/33 193/194/32
f 196/195/33 198/197/34 197/198/34 195/196/33
f 198/197/34 200/199/35 199/200/35 197/198/34
f 200/199/35 202/201/36 201/202/36 199/200/35
f 202/201/36 204/203/37 203/204/37 201/202/36
f 204/203/37 206/205/38 205/206/38 203/204/37
f 206/205/38 208/207/39 207/208/39 205/206/38
f 208/207/39 210/209/40 209/210/40 207/208/39
f 210/209/40 212/211/41 211/212/41 209/210/40
f 212/211/41 214/213/42 213/214/42 211/212/41
f 214/213/42 216/215/43 215/216/43 213/214/42
f 216/215/43 218/217/44 217/218/44 215/216/43
f 218/217/44 220/219/45 219/220/45 217/218/44
f 220/219/45 222/221/46 221/222/46 219/220/45
f 222/221/46 224/223/47 223/224/47 221/222/46
f 224/223/47 226/225/48 225/226/48 223/224/47
f 226/225/48 228/227/49 227/228/49 225/226/48
f 228/227/49 230/229/50 229/230/50 227/228/49
f 230/229/50 232/231/51 231/232/51 229/230/50
f 232/231/51 234/233/52 233/234/52 231/232/51
f 234/233/52 236/235/53 235/236/53 233/234/52
f 236/235/53 238/237/54 237/238/54 235/236/53
f 238/237/54 240/239/55 239/240/55 237/238/54
f 240/239/55 242/241/56 241/242/56 239/240/55
f 242/241/56 244/243/57 243/244/57 241/242/56
f 244/243/57 246/245/58 245/246/58 243/244/57
f 246/245/58 248/247/59 247/248/59 245/246/58
f 248/247/59 250/249/60 249/250/60 247/248/59
f 250/249/60 252/251/61 251/252/61 249/250/60
f 252/251/61 254/253/62 253/254/62 251/252/61
f 254/253/62 256/255/63 255/256/63 253/254/62
f 256/255/63 258/257/64 257/258/64 255/256/63
f 258/257/64 260/259/65 259/260/65 257/258/64
f 260/259/65 262/261/66 261/262/66 259/260/65
f 262/261/66 264/263/67 263/264/67 261/262/66
f 264/263/67 266/265/68 265/266/68 263/264/67
f 266/265/68 268/267/69 267/268/69 265/266/68
f 268/267/69 136/269/3 135/270/3 267/268/69
