# Blender v2.90.1 OBJ File: 'Graphics tank.blend'
# www.blender.org
mtllib 6.mtl
o Text
v 0.241022 0.100000 0.514503
v 0.127245 0.100000 0.595822
v -0.019337 0.100000 0.622928
v -0.175760 0.100000 0.589952
v -0.284530 0.100000 0.491022
v -0.337362 0.100000 0.364468
v -0.354972 0.100000 0.201657
v -0.285739 0.100000 -0.116885
v -0.078039 0.100000 -0.390193
v -0.013122 0.100000 -0.455801
v 0.028660 0.100000 -0.489986
v 0.058702 0.100000 -0.501381
v 0.084599 0.100000 -0.496461
v 0.107044 0.100000 -0.481699
v 0.122756 0.100000 -0.460204
v 0.128453 0.100000 -0.435083
v 0.111533 0.100000 -0.398653
v 0.058011 0.100000 -0.339088
v -0.082873 0.100000 -0.201658
v -0.134841 0.100000 -0.130525
v -0.178867 0.100000 -0.030387
v -0.122583 0.100000 -0.054472
v -0.073895 0.100000 -0.071478
v -0.032976 0.100000 -0.081578
v 0.000000 0.100000 -0.084945
v 0.142783 0.100000 -0.063363
v 0.247928 0.100000 0.001381
v 0.312673 0.100000 0.105490
v 0.334254 0.100000 0.245166
v 0.310946 0.100000 0.395028
v 0.145028 0.100000 0.103246
v 0.076657 0.100000 0.067766
v -0.019337 0.100000 0.055939
v -0.075622 0.100000 0.061119
v -0.125691 0.100000 0.076657
v -0.157286 0.100000 0.094095
v -0.216160 0.100000 0.129834
v -0.219268 0.100000 0.166091
v -0.220304 0.100000 0.201657
v -0.209945 0.100000 0.313881
v -0.178867 0.100000 0.403315
v -0.111706 0.100000 0.477900
v -0.015193 0.100000 0.502762
v 0.077348 0.100000 0.484116
v 0.146409 0.100000 0.428177
v 0.186291 0.100000 0.347894
v 0.199586 0.100000 0.245166
v 0.185946 0.100000 0.162379
v 0.241022 -0.100000 0.514503
v 0.127245 -0.100000 0.595822
v -0.019337 -0.100000 0.622928
v -0.175760 -0.100000 0.589952
v -0.284530 -0.100000 0.491022
v -0.337362 -0.100000 0.364468
v -0.354972 -0.100000 0.201657
v -0.285739 -0.100000 -0.116885
v -0.078039 -0.100000 -0.390193
v -0.013122 -0.100000 -0.455801
v 0.028660 -0.100000 -0.489986
v 0.058702 -0.100000 -0.501381
v 0.084599 -0.100000 -0.496461
v 0.107044 -0.100000 -0.481699
v 0.122756 -0.100000 -0.460204
v 0.128453 -0.100000 -0.435083
v 0.111533 -0.100000 -0.398653
v 0.058011 -0.100000 -0.339088
v -0.082873 -0.100000 -0.201658
v -0.134841 -0.100000 -0.130525
v -0.178867 -0.100000 -0.030387
v -0.122583 -0.100000 -0.054472
v -0.073895 -0.100000 -0.071478
v -0.032976 -0.100000 -0.081578
v 0.000000 -0.100000 -0.084945
v 0.142783 -0.100000 -0.063363
v 0.247928 -0.100000 0.001381
v 0.312673 -0.100000 0.105490
v 0.334254 -0.100000 0.245166
v 0.310946 -0.100000 0.395028
v 0.145028 -0.100000 0.103246
v 0.076657 -0.100000 0.067766
v -0.019337 -0.100000 0.055939
v -0.075622 -0.100000 0.061119
v -0.125691 -0.100000 0.076657
v -0.157286 -0.100000 0.094095
v -0.216160 -0.100000 0.129834
v -0.219268 -0.100000 0.166091
v -0.220304 -0.100000 0.201657
v -0.209945 -0.100000 0.313881
v -0.178867 -0.100000 0.403315
v -0.111706 -0.100000 0.477900
v -0.015193 -0.100000 0.502762
v 0.077348 -0.100000 0.484116
v 0.146409 -0.100000 0.428177
v 0.186291 -0.100000 0.347894
v 0.199586 -0.100000 0.245166
v 0.185946 -0.100000 0.162379
v 0.241022 -0.100000 0.514503
v 0.241022 0.100000 0.514503
v 0.127245 -0.100000 0.595822
v 0.127245 0.100000 0.595822
v -0.019337 -0.100000 0.622928
v -0.019337 0.100000 0.622928
v -0.175760 -0.100000 0.589952
v -0.175760 0.100000 0.589952
v -0.284530 -0.100000 0.491022
v -0.284530 0.100000 0.491022
v -0.337362 -0.100000 0.364468
v -0.337362 0.100000 0.364468
v -0.354972 -0.100000 0.201657
v -0.354972 0.100000 0.201657
v -0.285739 -0.100000 -0.116885
v -0.285739 0.100000 -0.116885
v -0.078039 -0.100000 -0.390193
v -0.078039 0.100000 -0.390193
v -0.013122 -0.100000 -0.455801
v -0.013122 0.100000 -0.455801
v 0.028660 -0.100000 -0.489986
v 0.028660 0.100000 -0.489986
v 0.058702 -0.100000 -0.501381
v 0.058702 0.100000 -0.501381
v 0.084599 -0.100000 -0.496461
v 0.084599 0.100000 -0.496461
v 0.107044 -0.100000 -0.481699
v 0.107044 0.100000 -0.481699
v 0.122756 -0.100000 -0.460204
v 0.122756 0.100000 -0.460204
v 0.128453 -0.100000 -0.435083
v 0.128453 0.100000 -0.435083
v 0.111533 -0.100000 -0.398653
v 0.111533 0.100000 -0.398653
v 0.058011 -0.100000 -0.339088
v 0.058011 0.100000 -0.339088
v -0.082873 -0.100000 -0.201658
v -0.082873 0.100000 -0.201658
v -0.134841 -0.100000 -0.130525
v -0.134841 0.100000 -0.130525
v -0.178867 -0.100000 -0.030387
v -0.178867 0.100000 -0.030387
v -0.122583 -0.100000 -0.054472
v -0.122583 0.100000 -0.054472
v -0.073895 -0.100000 -0.071478
v -0.073895 0.100000 -0.071478
v -0.032976 -0.100000 -0.081578
v -0.032976 0.100000 -0.081578
v 0.000000 -0.100000 -0.084945
v 0.000000 0.100000 -0.084945
v 0.142783 -0.100000 -0.063363
v 0.142783 0.100000 -0.063363
v 0.247928 -0.100000 0.001381
v 0.247928 0.100000 0.001381
v 0.312673 -0.100000 0.105490
v 0.312673 0.100000 0.105490
v 0.334254 -0.100000 0.245166
v 0.334254 0.100000 0.245166
v 0.310946 -0.100000 0.395028
v 0.310946 0.100000 0.395028
v 0.145028 -0.100000 0.103246
v 0.145028 0.100000 0.103246
v 0.076657 -0.100000 0.067766
v 0.076657 0.100000 0.067766
v -0.019337 -0.100000 0.055939
v -0.019337 0.100000 0.055939
v -0.075622 -0.100000 0.061119
v -0.075622 0.100000 0.061119
v -0.125691 -0.100000 0.076657
v -0.125691 0.100000 0.076657
v -0.157286 -0.100000 0.094095
v -0.157286 0.100000 0.094095
v -0.216160 -0.100000 0.129834
v -0.216160 0.100000 0.129834
v -0.219268 -0.100000 0.166091
v -0.219268 0.100000 0.166091
v -0.220304 -0.100000 0.201657
v -0.220304 0.100000 0.201657
v -0.209945 -0.100000 0.313881
v -0.209945 0.100000 0.313881
v -0.178867 -0.100000 0.403315
v -0.178867 0.100000 0.403315
v -0.111706 -0.100000 0.477900
v -0.111706 0.100000 0.477900
v -0.015193 -0.100000 0.502762
v -0.015193 0.100000 0.502762
v 0.077348 -0.100000 0.484116
v 0.077348 0.100000 0.484116
v 0.146409 -0.100000 0.428177
v 0.146409 0.100000 0.428177
v 0.186291 -0.100000 0.347894
v 0.186291 0.100000 0.347894
v 0.199586 -0.100000 0.245166
v 0.199586 0.100000 0.245166
v 0.185946 -0.100000 0.162379
v 0.185946 0.100000 0.162379
vt 0.212766 0.000000
vt 0.255319 0.000000
vt 0.234043 0.000000
vt 0.276596 0.000000
vt 0.191489 0.000000
vt 0.297872 0.000000
vt 0.319149 0.000000
vt 0.170213 0.000000
vt 0.340426 0.000000
vt 0.361702 0.000000
vt 0.148936 0.000000
vt 0.382979 0.000000
vt 0.404255 0.000000
vt 0.425532 0.000000
vt 0.127660 0.000000
vt 0.489362 0.000000
vt 0.531915 0.000000
vt 0.510638 0.000000
vt 0.468085 0.000000
vt 0.446809 0.000000
vt 0.553191 0.000000
vt 0.723404 0.000000
vt 0.702128 0.000000
vt 0.680851 0.000000
vt 0.659574 0.000000
vt 0.574468 0.000000
vt 0.638298 0.000000
vt 0.744681 0.000000
vt 0.765957 0.000000
vt 1.000000 0.000000
vt 0.595745 0.000000
vt 0.787234 0.000000
vt 0.978723 0.000000
vt 0.808511 0.000000
vt 0.106383 0.000000
vt 0.829787 0.000000
vt 0.957447 0.000000
vt 0.617021 0.000000
vt 0.851064 0.000000
vt 0.936170 0.000000
vt 0.085106 0.000000
vt 0.000000 0.000000
vt 0.872340 0.000000
vt 0.914894 0.000000
vt 0.893617 0.000000
vt 0.063830 0.000000
vt 0.021277 0.000000
vt 0.042553 0.000000
vt 0.255319 0.000000
vt 0.212766 0.000000
vt 0.234043 0.000000
vt 0.276596 0.000000
vt 0.191489 0.000000
vt 0.297872 0.000000
vt 0.319149 0.000000
vt 0.170213 0.000000
vt 0.340426 0.000000
vt 0.361702 0.000000
vt 0.148936 0.000000
vt 0.382979 0.000000
vt 0.404255 0.000000
vt 0.425532 0.000000
vt 0.127660 0.000000
vt 0.531915 0.000000
vt 0.489362 0.000000
vt 0.510638 0.000000
vt 0.468085 0.000000
vt 0.446809 0.000000
vt 0.553191 0.000000
vt 0.723404 0.000000
vt 0.702128 0.000000
vt 0.680851 0.000000
vt 0.659574 0.000000
vt 0.574468 0.000000
vt 0.638298 0.000000
vt 0.744681 0.000000
vt 0.765957 0.000000
vt 1.000000 0.000000
vt 0.595745 0.000000
vt 0.787234 0.000000
vt 0.978723 0.000000
vt 0.808511 0.000000
vt 0.106383 0.000000
vt 0.829787 0.000000
vt 0.957447 0.000000
vt 0.617021 0.000000
vt 0.851064 0.000000
vt 0.936170 0.000000
vt 0.085106 0.000000
vt 0.000000 0.000000
vt 0.872340 0.000000
vt 0.914894 0.000000
vt 0.893617 0.000000
vt 0.063830 0.000000
vt 0.021277 0.000000
vt 0.042553 0.000000
vt 0.000000 1.000000
vt 0.033333 1.000000
vt 0.033333 0.000000
vt 0.000000 0.000000
vt 0.066667 1.000000
vt 0.066667 0.000000
vt 0.100000 1.000000
vt 0.100000 0.000000
vt 0.133333 1.000000
vt 0.133333 0.000000
vt 0.166667 1.000000
vt 0.166667 0.000000
vt 0.200000 1.000000
vt 0.200000 0.000000
vt 0.233333 1.000000
vt 0.233333 0.000000
vt 0.266667 1.000000
vt 0.266667 0.000000
vt 0.300000 1.000000
vt 0.300000 0.000000
vt 0.333333 1.000000
vt 0.333333 0.000000
vt 0.366667 1.000000
vt 0.366667 0.000000
vt 0.400000 1.000000
vt 0.400000 0.000000
vt 0.433333 1.000000
vt 0.433333 0.000000
vt 0.466667 1.000000
vt 0.466667 0.000000
vt 0.500000 1.000000
vt 0.500000 0.000000
vt 0.533333 1.000000
vt 0.533333 0.000000
vt 0.566667 1.000000
vt 0.566667 0.000000
vt 0.600000 1.000000
vt 0.600000 0.000000
vt 0.633333 1.000000
vt 0.633333 0.000000
vt 0.666667 1.000000
vt 0.666667 0.000000
vt 0.700000 1.000000
vt 0.700000 0.000000
vt 0.733333 1.000000
vt 0.733333 0.000000
vt 0.766667 1.000000
vt 0.766667 0.000000
vt 0.800000 1.000000
vt 0.800000 0.000000
vt 0.833333 1.000000
vt 0.833333 0.000000
vt 0.866667 1.000000
vt 0.866667 0.000000
vt 0.900000 1.000000
vt 0.900000 0.000000
vt 0.933333 1.000000
vt 0.933333 0.000000
vt 0.966667 1.000000
vt 0.966667 0.000000
vt 1.000000 1.000000
vt 1.000000 0.000000
vt 0.000000 1.000000
vt 0.055556 1.000000
vt 0.055556 0.000000
vt 0.000000 0.000000
vt 0.111111 1.000000
vt 0.111111 0.000000
vt 0.166667 1.000000
vt 0.166667 0.000000
vt 0.222222 1.000000
vt 0.222222 0.000000
vt 0.277778 1.000000
vt 0.277778 0.000000
vt 0.333333 1.000000
vt 0.333333 0.000000
vt 0.388889 1.000000
vt 0.388889 0.000000
vt 0.444444 1.000000
vt 0.444444 0.000000
vt 0.500000 1.000000
vt 0.500000 0.000000
vt 0.555556 1.000000
vt 0.555556 0.000000
vt 0.611111 1.000000
vt 0.611111 0.000000
vt 0.666667 1.000000
vt 0.666667 0.000000
vt 0.722222 1.000000
vt 0.722222 0.000000
vt 0.777778 1.000000
vt 0.777778 0.000000
vt 0.833333 1.000000
vt 0.833333 0.000000
vt 0.888889 1.000000
vt 0.888889 0.000000
vt 0.944444 1.000000
vt 0.944444 0.000000
vt 1.000000 1.000000
vt 1.000000 0.000000
vn 0.0000 1.0000 0.0000
vn 0.0000 -1.0000 0.0000
vn 0.7385 0.0000 0.6742
vn 0.3910 0.0000 0.9204
vn -0.0125 0.0000 0.9999
vn -0.4555 0.0000 0.8902
vn -0.8173 0.0000 0.5762
vn -0.9685 0.0000 0.2489
vn -0.9986 0.0000 -0.0531
vn -0.9081 0.0000 -0.4186
vn -0.7551 0.0000 -0.6556
vn -0.6730 0.0000 -0.7396
vn -0.5004 0.0000 -0.8657
vn -0.0873 0.0000 -0.9962
vn 0.3753 0.0000 -0.9269
vn 0.6894 0.0000 -0.7244
vn 0.9102 0.0000 -0.4142
vn 0.9944 0.0000 0.1057
vn 0.8346 0.0000 0.5509
vn 0.7214 0.0000 0.6925
vn 0.7555 0.0000 0.6551
vn 0.8665 0.0000 0.4991
vn 0.7106 0.0000 -0.7036
vn -0.3618 0.0000 -0.9322
vn -0.2850 0.0000 -0.9585
vn -0.1710 0.0000 -0.9853
vn 0.0241 0.0000 -0.9997
vn 0.3438 0.0000 -0.9390
vn 0.7055 0.0000 -0.7087
vn 0.9377 0.0000 -0.3474
vn 1.0000 0.0000 0.0005
vn 0.9421 0.0000 0.3353
vn -0.6609 0.0000 0.7504
vn -0.2961 0.0000 0.9551
vn -0.0154 0.0000 0.9999
vn 0.1951 0.0000 0.9808
vn 0.3918 0.0000 0.9200
vn 0.5011 0.0000 0.8653
vn 0.8497 0.0000 0.5272
vn 0.9984 0.0000 0.0573
vn 0.9995 0.0000 -0.0314
vn 0.9773 0.0000 -0.2116
vn 0.8609 0.0000 -0.5087
vn 0.5183 0.0000 -0.8552
vn 0.0266 0.0000 -0.9996
vn -0.4258 0.0000 -0.9048
vn -0.7804 0.0000 -0.6253
vn -0.9568 0.0000 -0.2906
vn -0.9998 0.0000 0.0173
vn -0.9270 0.0000 0.3749
usemtl None
s off
f 11/1/1 13/2/1 12/3/1
f 11/1/1 14/4/1 13/2/1
f 10/5/1 14/4/1 11/1/1
f 10/5/1 15/6/1 14/4/1
f 10/5/1 16/7/1 15/6/1
f 9/8/1 16/7/1 10/5/1
f 9/8/1 17/9/1 16/7/1
f 9/8/1 18/10/1 17/9/1
f 8/11/1 18/10/1 9/8/1
f 8/11/1 19/12/1 18/10/1
f 8/11/1 20/13/1 19/12/1
f 8/11/1 21/14/1 20/13/1
f 7/15/1 21/14/1 8/11/1
f 24/16/1 26/17/1 25/18/1
f 23/19/1 26/17/1 24/16/1
f 22/20/1 26/17/1 23/19/1
f 22/20/1 27/21/1 26/17/1
f 21/14/1 27/21/1 22/20/1
f 7/15/1 35/22/1 21/14/1
f 35/22/1 34/23/1 21/14/1
f 34/23/1 27/21/1 21/14/1
f 34/23/1 33/24/1 27/21/1
f 33/24/1 32/25/1 27/21/1
f 32/25/1 28/26/1 27/21/1
f 31/27/1 28/26/1 32/25/1
f 7/15/1 36/28/1 35/22/1
f 7/15/1 37/29/1 36/28/1
f 48/30/1 28/26/1 31/27/1
f 48/30/1 29/31/1 28/26/1
f 7/15/1 38/32/1 37/29/1
f 47/33/1 29/31/1 48/30/1
f 7/15/1 39/34/1 38/32/1
f 6/35/1 39/34/1 7/15/1
f 6/35/1 40/36/1 39/34/1
f 46/37/1 29/31/1 47/33/1
f 46/37/1 30/38/1 29/31/1
f 6/35/1 41/39/1 40/36/1
f 45/40/1 30/38/1 46/37/1
f 5/41/1 41/39/1 6/35/1
f 45/40/1 1/42/1 30/38/1
f 5/41/1 42/43/1 41/39/1
f 44/44/1 1/42/1 45/40/1
f 5/41/1 43/45/1 42/43/1
f 43/45/1 1/42/1 44/44/1
f 4/46/1 43/45/1 5/41/1
f 4/46/1 1/42/1 43/45/1
f 4/46/1 2/47/1 1/42/1
f 3/48/1 2/47/1 4/46/1
f 61/49/2 59/50/2 60/51/2
f 62/52/2 59/50/2 61/49/2
f 62/52/2 58/53/2 59/50/2
f 63/54/2 58/53/2 62/52/2
f 64/55/2 58/53/2 63/54/2
f 64/55/2 57/56/2 58/53/2
f 65/57/2 57/56/2 64/55/2
f 66/58/2 57/56/2 65/57/2
f 66/58/2 56/59/2 57/56/2
f 67/60/2 56/59/2 66/58/2
f 68/61/2 56/59/2 67/60/2
f 69/62/2 56/59/2 68/61/2
f 69/62/2 55/63/2 56/59/2
f 74/64/2 72/65/2 73/66/2
f 74/64/2 71/67/2 72/65/2
f 74/64/2 70/68/2 71/67/2
f 75/69/2 70/68/2 74/64/2
f 75/69/2 69/62/2 70/68/2
f 83/70/2 55/63/2 69/62/2
f 82/71/2 83/70/2 69/62/2
f 75/69/2 82/71/2 69/62/2
f 81/72/2 82/71/2 75/69/2
f 80/73/2 81/72/2 75/69/2
f 76/74/2 80/73/2 75/69/2
f 76/74/2 79/75/2 80/73/2
f 84/76/2 55/63/2 83/70/2
f 85/77/2 55/63/2 84/76/2
f 76/74/2 96/78/2 79/75/2
f 77/79/2 96/78/2 76/74/2
f 86/80/2 55/63/2 85/77/2
f 77/79/2 95/81/2 96/78/2
f 87/82/2 55/63/2 86/80/2
f 87/82/2 54/83/2 55/63/2
f 88/84/2 54/83/2 87/82/2
f 77/79/2 94/85/2 95/81/2
f 78/86/2 94/85/2 77/79/2
f 89/87/2 54/83/2 88/84/2
f 78/86/2 93/88/2 94/85/2
f 89/87/2 53/89/2 54/83/2
f 49/90/2 93/88/2 78/86/2
f 90/91/2 53/89/2 89/87/2
f 49/90/2 92/92/2 93/88/2
f 91/93/2 53/89/2 90/91/2
f 49/90/2 91/93/2 92/92/2
f 91/93/2 52/94/2 53/89/2
f 49/90/2 52/94/2 91/93/2
f 50/95/2 52/94/2 49/90/2
f 50/95/2 51/96/2 52/94/2
s 1
f 98/97/3 100/98/4 99/99/4 97/100/3
f 100/98/4 102/101/5 101/102/5 99/99/4
f 102/101/5 104/103/6 103/104/6 101/102/5
f 104/103/6 106/105/7 105/106/7 103/104/6
f 106/105/7 108/107/8 107/108/8 105/106/7
f 108/107/8 110/109/9 109/110/9 107/108/8
f 110/109/9 112/111/10 111/112/10 109/110/9
f 112/111/10 114/113/11 113/114/11 111/112/10
f 114/113/11 116/115/12 115/116/12 113/114/11
f 116/115/12 118/117/13 117/118/13 115/116/12
f 118/117/13 120/119/14 119/120/14 117/118/13
f 120/119/14 122/121/15 121/122/15 119/120/14
f 122/121/15 124/123/16 123/124/16 121/122/15
f 124/123/16 126/125/17 125/126/17 123/124/16
f 126/125/17 128/127/18 127/128/18 125/126/17
f 128/127/18 130/129/19 129/130/19 127/128/18
f 130/129/19 132/131/20 131/132/20 129/130/19
f 132/131/20 134/133/21 133/134/21 131/132/20
f 134/133/21 136/135/22 135/136/22 133/134/21
f 136/135/22 138/137/23 137/138/23 135/136/22
f 138/137/23 140/139/24 139/140/24 137/138/23
f 140/139/24 142/141/25 141/142/25 139/140/24
f 142/141/25 144/143/26 143/144/26 141/142/25
f 144/143/26 146/145/27 145/146/27 143/144/26
f 146/145/27 148/147/28 147/148/28 145/146/27
f 148/147/28 150/149/29 149/150/29 147/148/28
f 150/149/29 152/151/30 151/152/30 149/150/29
f 152/151/30 154/153/31 153/154/31 151/152/30
f 154/153/31 156/155/32 155/156/32 153/154/31
f 156/155/32 98/157/3 97/158/3 155/156/32
f 158/159/33 160/160/34 159/161/34 157/162/33
f 160/160/34 162/163/35 161/164/35 159/161/34
f 162/163/35 164/165/36 163/166/36 161/164/35
f 164/165/36 166/167/37 165/168/37 163/166/36
f 166/167/37 168/169/38 167/170/38 165/168/37
f 168/169/38 170/171/39 169/172/39 167/170/38
f 170/171/39 172/173/40 171/174/40 169/172/39
f 172/173/40 174/175/41 173/176/41 171/174/40
f 174/175/41 176/177/42 175/178/42 173/176/41
f 176/177/42 178/179/43 177/180/43 175/178/42
f 178/179/43 180/181/44 179/182/44 177/180/43
f 180/181/44 182/183/45 181/184/45 179/182/44
f 182/183/45 184/185/46 183/186/46 181/184/45
f 184/185/46 186/187/47 185/188/47 183/186/46
f 186/187/47 188/189/48 187/190/48 185/188/47
f 188/189/48 190/191/49 189/192/49 187/190/48
f 190/191/49 192/193/50 191/194/50 189/192/49
f 192/193/50 158/195/33 157/196/33 191/194/50
