# Blender v2.90.1 OBJ File: 'Things.blend'
# www.blender.org
mtllib 0.mtl
o Text
v -0.284531 0.100000 -0.445097
v -0.161948 0.100000 -0.561378
v 0.009668 0.100000 -0.600138
v 0.191298 0.100000 -0.552141
v 0.316298 0.100000 -0.408149
v 0.371202 0.100000 -0.238087
v 0.389503 0.100000 -0.023481
v 0.365677 0.100000 0.164019
v 0.294199 0.100000 0.325967
v 0.161430 0.100000 0.457010
v -0.011740 0.100000 0.500691
v -0.173342 0.100000 0.462017
v -0.294889 0.100000 0.345995
v -0.360670 0.100000 0.197341
v -0.382597 0.100000 0.019337
v -0.358080 0.100000 -0.251467
v -0.186119 0.100000 0.274171
v -0.113173 0.100000 0.344095
v -0.011050 0.100000 0.367403
v 0.104109 0.100000 0.334772
v 0.192680 0.100000 0.236878
v 0.239814 0.100000 0.119993
v 0.255525 0.100000 -0.012431
v 0.240159 0.100000 -0.211326
v 0.194061 0.100000 -0.353591
v 0.117231 0.100000 -0.439054
v 0.009668 0.100000 -0.467541
v -0.116022 0.100000 -0.425760
v -0.200276 0.100000 -0.300414
v -0.233425 0.100000 -0.168853
v -0.244475 0.100000 -0.006215
v -0.229886 0.100000 0.157459
v -0.284531 -0.100000 -0.445097
v -0.161948 -0.100000 -0.561378
v 0.009668 -0.100000 -0.600138
v 0.191298 -0.100000 -0.552141
v 0.316298 -0.100000 -0.408149
v 0.371202 -0.100000 -0.238087
v 0.389503 -0.100000 -0.023481
v 0.365677 -0.100000 0.164019
v 0.294199 -0.100000 0.325967
v 0.161430 -0.100000 0.457010
v -0.011740 -0.100000 0.500691
v -0.173342 -0.100000 0.462017
v -0.294889 -0.100000 0.345995
v -0.360670 -0.100000 0.197341
v -0.382597 -0.100000 0.019337
v -0.358080 -0.100000 -0.251467
v -0.186119 -0.100000 0.274171
v -0.113173 -0.100000 0.344095
v -0.011050 -0.100000 0.367403
v 0.104109 -0.100000 0.334772
v 0.192680 -0.100000 0.236878
v 0.239814 -0.100000 0.119993
v 0.255525 -0.100000 -0.012431
v 0.240159 -0.100000 -0.211326
v 0.194061 -0.100000 -0.353591
v 0.117231 -0.100000 -0.439054
v 0.009668 -0.100000 -0.467541
v -0.116022 -0.100000 -0.425760
v -0.200276 -0.100000 -0.300414
v -0.233425 -0.100000 -0.168853
v -0.244475 -0.100000 -0.006215
v -0.229886 -0.100000 0.157459
v -0.284531 -0.100000 -0.445097
v -0.284531 0.100000 -0.445097
v -0.161948 -0.100000 -0.561378
v -0.161948 0.100000 -0.561378
v 0.009668 -0.100000 -0.600138
v 0.009668 0.100000 -0.600138
v 0.191298 -0.100000 -0.552141
v 0.191298 0.100000 -0.552141
v 0.316298 -0.100000 -0.408149
v 0.316298 0.100000 -0.408149
v 0.371202 -0.100000 -0.238087
v 0.371202 0.100000 -0.238087
v 0.389503 -0.100000 -0.023481
v 0.389503 0.100000 -0.023481
v 0.365677 -0.100000 0.164019
v 0.365677 0.100000 0.164019
v 0.294199 -0.100000 0.325967
v 0.294199 0.100000 0.325967
v 0.161430 -0.100000 0.457010
v 0.161430 0.100000 0.457010
v -0.011740 -0.100000 0.500691
v -0.011740 0.100000 0.500691
v -0.173342 -0.100000 0.462017
v -0.173342 0.100000 0.462017
v -0.294889 -0.100000 0.345995
v -0.294889 0.100000 0.345995
v -0.360670 -0.100000 0.197341
v -0.360670 0.100000 0.197341
v -0.382597 -0.100000 0.019337
v -0.382597 0.100000 0.019337
v -0.358080 -0.100000 -0.251467
v -0.358080 0.100000 -0.251467
v -0.186119 -0.100000 0.274171
v -0.186119 0.100000 0.274171
v -0.113173 -0.100000 0.344095
v -0.113173 0.100000 0.344095
v -0.011050 -0.100000 0.367403
v -0.011050 0.100000 0.367403
v 0.104109 -0.100000 0.334772
v 0.104109 0.100000 0.334772
v 0.192680 -0.100000 0.236878
v 0.192680 0.100000 0.236878
v 0.239814 -0.100000 0.119993
v 0.239814 0.100000 0.119993
v 0.255525 -0.100000 -0.012431
v 0.255525 0.100000 -0.012431
v 0.240159 -0.100000 -0.211326
v 0.240159 0.100000 -0.211326
v 0.194061 -0.100000 -0.353591
v 0.194061 0.100000 -0.353591
v 0.117231 -0.100000 -0.439054
v 0.117231 0.100000 -0.439054
v 0.009668 -0.100000 -0.467541
v 0.009668 0.100000 -0.467541
v -0.116022 -0.100000 -0.425760
v -0.116022 0.100000 -0.425760
v -0.200276 -0.100000 -0.300414
v -0.200276 0.100000 -0.300414
v -0.233425 -0.100000 -0.168853
v -0.233425 0.100000 -0.168853
v -0.244475 -0.100000 -0.006215
v -0.244475 0.100000 -0.006215
v -0.229886 -0.100000 0.157459
v -0.229886 0.100000 0.157459
vt 0.290323 0.000000
vt 0.354839 0.000000
vt 0.322581 0.000000
vt 0.387097 0.000000
vt 0.258065 0.000000
vt 0.580645 0.000000
vt 0.612903 0.000000
vt 0.548387 0.000000
vt 0.419355 0.000000
vt 0.516129 0.000000
vt 0.645161 0.000000
vt 0.225806 0.000000
vt 1.000000 0.000000
vt 0.677419 0.000000
vt 0.451613 0.000000
vt 0.193548 0.000000
vt 0.967742 0.000000
vt 0.709677 0.000000
vt 0.483871 0.000000
vt 0.935484 0.000000
vt 0.741935 0.000000
vt 0.161290 0.000000
vt 0.903226 0.000000
vt 0.774194 0.000000
vt 0.129032 0.000000
vt 0.000000 0.000000
vt 0.870968 0.000000
vt 0.806452 0.000000
vt 0.096774 0.000000
vt 0.838710 0.000000
vt 0.032258 0.000000
vt 0.064516 0.000000
vt 0.354839 0.000000
vt 0.290323 0.000000
vt 0.322581 0.000000
vt 0.387097 0.000000
vt 0.580645 0.000000
vt 0.258065 0.000000
vt 0.612903 0.000000
vt 0.548387 0.000000
vt 0.419355 0.000000
vt 0.516129 0.000000
vt 0.645161 0.000000
vt 0.225806 0.000000
vt 1.000000 0.000000
vt 0.677419 0.000000
vt 0.451613 0.000000
vt 0.193548 0.000000
vt 0.967742 0.000000
vt 0.709677 0.000000
vt 0.483871 0.000000
vt 0.935484 0.000000
vt 0.741935 0.000000
vt 0.161290 0.000000
vt 0.903226 0.000000
vt 0.774194 0.000000
vt 0.129032 0.000000
vt 0.000000 0.000000
vt 0.870968 0.000000
vt 0.806452 0.000000
vt 0.096774 0.000000
vt 0.838710 0.000000
vt 0.032258 0.000000
vt 0.064516 0.000000
vt 0.000000 1.000000
vt 0.062500 1.000000
vt 0.062500 0.000000
vt 0.000000 0.000000
vt 0.125000 1.000000
vt 0.125000 0.000000
vt 0.187500 1.000000
vt 0.187500 0.000000
vt 0.250000 1.000000
vt 0.250000 0.000000
vt 0.312500 1.000000
vt 0.312500 0.000000
vt 0.375000 1.000000
vt 0.375000 0.000000
vt 0.437500 1.000000
vt 0.437500 0.000000
vt 0.500000 1.000000
vt 0.500000 0.000000
vt 0.562500 1.000000
vt 0.562500 0.000000
vt 0.625000 1.000000
vt 0.625000 0.000000
vt 0.687500 1.000000
vt 0.687500 0.000000
vt 0.750000 1.000000
vt 0.750000 0.000000
vt 0.812500 1.000000
vt 0.812500 0.000000
vt 0.875000 1.000000
vt 0.875000 0.000000
vt 0.937500 1.000000
vt 0.937500 0.000000
vt 1.000000 1.000000
vt 1.000000 0.000000
vt 0.000000 1.000000
vt 0.062500 1.000000
vt 0.062500 0.000000
vt 0.000000 0.000000
vt 0.125000 1.000000
vt 0.125000 0.000000
vt 0.187500 1.000000
vt 0.187500 0.000000
vt 0.250000 1.000000
vt 0.250000 0.000000
vt 0.312500 1.000000
vt 0.312500 0.000000
vt 0.375000 1.000000
vt 0.375000 0.000000
vt 0.437500 1.000000
vt 0.437500 0.000000
vt 0.500000 1.000000
vt 0.500000 0.000000
vt 0.562500 1.000000
vt 0.562500 0.000000
vt 0.625000 1.000000
vt 0.625000 0.000000
vt 0.687500 1.000000
vt 0.687500 0.000000
vt 0.750000 1.000000
vt 0.750000 0.000000
vt 0.812500 1.000000
vt 0.812500 0.000000
vt 0.875000 1.000000
vt 0.875000 0.000000
vt 0.937500 1.000000
vt 0.937500 0.000000
vt 1.000000 1.000000
vt 1.000000 0.000000
vn 0.0000 1.0000 0.0000
vn 0.0000 -1.0000 0.0000
vn -0.8324 0.0000 -0.5542
vn -0.4711 0.0000 -0.8820
vn 0.0181 0.0000 -0.9998
vn 0.5287 0.0000 -0.8488
vn 0.8710 0.0000 -0.4913
vn 0.9803 0.0000 -0.1974
vn 0.9998 0.0000 0.0206
vn 0.9635 0.0000 0.2677
vn 0.8232 0.0000 0.5678
vn 0.4908 0.0000 0.8713
vn 0.0061 0.0000 1.0000
vn -0.4781 0.0000 0.8783
vn -0.8181 0.0000 0.5750
vn -0.9639 0.0000 0.2663
vn -0.9998 0.0000 0.0161
vn -0.9744 0.0000 -0.2247
vn 0.8350 0.0000 -0.5502
vn 0.4744 0.0000 -0.8803
vn -0.0258 0.0000 -0.9997
vn -0.5275 0.0000 -0.8495
vn -0.8476 0.0000 -0.5306
vn -0.9687 0.0000 -0.2481
vn -0.9998 0.0000 -0.0205
vn -0.9810 0.0000 0.1940
vn -0.8664 0.0000 0.4993
vn -0.5216 0.0000 0.8532
vn 0.0310 0.0000 0.9995
vn 0.6052 0.0000 0.7961
vn 0.9134 0.0000 0.4071
vn 0.9876 0.0000 0.1567
vn 0.9999 0.0000 -0.0105
vn 0.9750 0.0000 -0.2220
usemtl None
s off
f 10/1/1 12/2/1 11/3/1
f 10/1/1 13/4/1 12/2/1
f 9/5/1 19/6/1 10/1/1
f 19/6/1 13/4/1 10/1/1
f 9/5/1 20/7/1 19/6/1
f 18/8/1 13/4/1 19/6/1
f 18/8/1 14/9/1 13/4/1
f 17/10/1 14/9/1 18/8/1
f 9/5/1 21/11/1 20/7/1
f 8/12/1 21/11/1 9/5/1
f 32/13/1 14/9/1 17/10/1
f 8/12/1 22/14/1 21/11/1
f 32/13/1 15/15/1 14/9/1
f 7/16/1 22/14/1 8/12/1
f 31/17/1 15/15/1 32/13/1
f 7/16/1 23/18/1 22/14/1
f 31/17/1 16/19/1 15/15/1
f 30/20/1 16/19/1 31/17/1
f 7/16/1 24/21/1 23/18/1
f 6/22/1 24/21/1 7/16/1
f 29/23/1 16/19/1 30/20/1
f 6/22/1 25/24/1 24/21/1
f 5/25/1 25/24/1 6/22/1
f 29/23/1 1/26/1 16/19/1
f 28/27/1 1/26/1 29/23/1
f 5/25/1 26/28/1 25/24/1
f 4/29/1 26/28/1 5/25/1
f 27/30/1 1/26/1 28/27/1
f 4/29/1 27/30/1 26/28/1
f 27/30/1 2/31/1 1/26/1
f 4/29/1 2/31/1 27/30/1
f 3/32/1 2/31/1 4/29/1
f 44/33/2 42/34/2 43/35/2
f 45/36/2 42/34/2 44/33/2
f 51/37/2 41/38/2 42/34/2
f 45/36/2 51/37/2 42/34/2
f 52/39/2 41/38/2 51/37/2
f 45/36/2 50/40/2 51/37/2
f 46/41/2 50/40/2 45/36/2
f 46/41/2 49/42/2 50/40/2
f 53/43/2 41/38/2 52/39/2
f 53/43/2 40/44/2 41/38/2
f 46/41/2 64/45/2 49/42/2
f 54/46/2 40/44/2 53/43/2
f 47/47/2 64/45/2 46/41/2
f 54/46/2 39/48/2 40/44/2
f 47/47/2 63/49/2 64/45/2
f 55/50/2 39/48/2 54/46/2
f 48/51/2 63/49/2 47/47/2
f 48/51/2 62/52/2 63/49/2
f 56/53/2 39/48/2 55/50/2
f 56/53/2 38/54/2 39/48/2
f 48/51/2 61/55/2 62/52/2
f 57/56/2 38/54/2 56/53/2
f 57/56/2 37/57/2 38/54/2
f 33/58/2 61/55/2 48/51/2
f 33/58/2 60/59/2 61/55/2
f 58/60/2 37/57/2 57/56/2
f 58/60/2 36/61/2 37/57/2
f 33/58/2 59/62/2 60/59/2
f 59/62/2 36/61/2 58/60/2
f 34/63/2 59/62/2 33/58/2
f 34/63/2 36/61/2 59/62/2
f 34/63/2 35/64/2 36/61/2
s 1
f 66/65/3 68/66/4 67/67/4 65/68/3
f 68/66/4 70/69/5 69/70/5 67/67/4
f 70/69/5 72/71/6 71/72/6 69/70/5
f 72/71/6 74/73/7 73/74/7 71/72/6
f 74/73/7 76/75/8 75/76/8 73/74/7
f 76/75/8 78/77/9 77/78/9 75/76/8
f 78/77/9 80/79/10 79/80/10 77/78/9
f 80/79/10 82/81/11 81/82/11 79/80/10
f 82/81/11 84/83/12 83/84/12 81/82/11
f 84/83/12 86/85/13 85/86/13 83/84/12
f 86/85/13 88/87/14 87/88/14 85/86/13
f 88/87/14 90/89/15 89/90/15 87/88/14
f 90/89/15 92/91/16 91/92/16 89/90/15
f 92/91/16 94/93/17 93/94/17 91/92/16
f 94/93/17 96/95/18 95/96/18 93/94/17
f 96/95/18 66/97/3 65/98/3 95/96/18
f 98/99/19 100/100/20 99/101/20 97/102/19
f 100/100/20 102/103/21 101/104/21 99/101/20
f 102/103/21 104/105/22 103/106/22 101/104/21
f 104/105/22 106/107/23 105/108/23 103/106/22
f 106/107/23 108/109/24 107/110/24 105/108/23
f 108/109/24 110/111/25 109/112/25 107/110/24
f 110/111/25 112/113/26 111/114/26 109/112/25
f 112/113/26 114/115/27 113/116/27 111/114/26
f 114/115/27 116/117/28 115/118/28 113/116/27
f 116/117/28 118/119/29 117/120/29 115/118/28
f 118/119/29 120/121/30 119/122/30 117/120/29
f 120/121/30 122/123/31 121/124/31 119/122/30
f 122/123/31 124/125/32 123/126/32 121/124/31
f 124/125/32 126/127/33 125/128/33 123/126/32
f 126/127/33 128/129/34 127/130/34 125/128/33
f 128/129/34 98/131/19 97/132/19 127/130/34
