# Blender v2.90.1 OBJ File: 'Things.blend'
# www.blender.org
mtllib 4.mtl
o Text
v -0.337017 0.100000 -0.267956
v -0.299551 0.100000 -0.271927
v -0.234116 0.100000 -0.271409
v -0.234116 0.100000 -0.526934
v -0.218405 0.100000 -0.575103
v -0.171271 0.100000 -0.591160
v -0.116368 0.100000 -0.566126
v -0.098066 0.100000 -0.491022
v -0.098412 0.100000 -0.476001
v -0.099448 0.100000 -0.455801
v -0.100484 0.100000 -0.436637
v -0.100829 0.100000 -0.424724
v -0.100138 0.100000 -0.267956
v 0.204420 0.100000 -0.260359
v 0.284530 0.100000 -0.258805
v 0.335635 0.100000 -0.254144
v 0.382769 0.100000 -0.236706
v 0.398481 0.100000 -0.205111
v 0.388985 0.100000 -0.169890
v 0.360497 0.100000 -0.126381
v 0.301105 0.100000 -0.055939
v -0.038674 0.100000 0.439917
v -0.091160 0.100000 0.488087
v -0.156077 0.100000 0.504144
v -0.214606 0.100000 0.487224
v -0.234116 0.100000 0.436464
v -0.234116 0.100000 -0.137431
v -0.247065 0.100000 -0.136913
v -0.262431 0.100000 -0.136740
v -0.357735 0.100000 -0.153833
v -0.389503 0.100000 -0.205110
v -0.376381 0.100000 -0.245684
v -0.100138 0.100000 -0.134668
v -0.100138 0.100000 0.312845
v 0.064054 0.100000 0.055594
v 0.187845 0.100000 -0.127762
v -0.337017 -0.100000 -0.267956
v -0.299551 -0.100000 -0.271927
v -0.234116 -0.100000 -0.271409
v -0.234116 -0.100000 -0.526934
v -0.218405 -0.100000 -0.575103
v -0.171271 -0.100000 -0.591160
v -0.116368 -0.100000 -0.566126
v -0.098066 -0.100000 -0.491022
v -0.098412 -0.100000 -0.476001
v -0.099448 -0.100000 -0.455801
v -0.100484 -0.100000 -0.436637
v -0.100829 -0.100000 -0.424724
v -0.100138 -0.100000 -0.267956
v 0.204420 -0.100000 -0.260359
v 0.284530 -0.100000 -0.258805
v 0.335635 -0.100000 -0.254144
v 0.382769 -0.100000 -0.236706
v 0.398481 -0.100000 -0.205111
v 0.388985 -0.100000 -0.169890
v 0.360497 -0.100000 -0.126381
v 0.301105 -0.100000 -0.055939
v -0.038674 -0.100000 0.439917
v -0.091160 -0.100000 0.488087
v -0.156077 -0.100000 0.504144
v -0.214606 -0.100000 0.487224
v -0.234116 -0.100000 0.436464
v -0.234116 -0.100000 -0.137431
v -0.247065 -0.100000 -0.136913
v -0.262431 -0.100000 -0.136740
v -0.357735 -0.100000 -0.153833
v -0.389503 -0.100000 -0.205110
v -0.376381 -0.100000 -0.245684
v -0.100138 -0.100000 -0.134668
v -0.100138 -0.100000 0.312845
v 0.064054 -0.100000 0.055594
v 0.187845 -0.100000 -0.127762
v -0.337017 -0.100000 -0.267956
v -0.337017 0.100000 -0.267956
v -0.299551 -0.100000 -0.271927
v -0.299551 0.100000 -0.271927
v -0.234116 -0.100000 -0.271409
v -0.234116 0.100000 -0.271409
v -0.234116 -0.100000 -0.526934
v -0.234116 0.100000 -0.526934
v -0.218405 -0.100000 -0.575103
v -0.218405 0.100000 -0.575103
v -0.171271 -0.100000 -0.591160
v -0.171271 0.100000 -0.591160
v -0.116368 -0.100000 -0.566126
v -0.116368 0.100000 -0.566126
v -0.098066 -0.100000 -0.491022
v -0.098066 0.100000 -0.491022
v -0.098412 -0.100000 -0.476001
v -0.098412 0.100000 -0.476001
v -0.099448 -0.100000 -0.455801
v -0.099448 0.100000 -0.455801
v -0.100484 -0.100000 -0.436637
v -0.100484 0.100000 -0.436637
v -0.100829 -0.100000 -0.424724
v -0.100829 0.100000 -0.424724
v -0.100138 -0.100000 -0.267956
v -0.100138 0.100000 -0.267956
v 0.204420 -0.100000 -0.260359
v 0.204420 0.100000 -0.260359
v 0.284530 -0.100000 -0.258805
v 0.284530 0.100000 -0.258805
v 0.335635 -0.100000 -0.254144
v 0.335635 0.100000 -0.254144
v 0.382769 -0.100000 -0.236706
v 0.382769 0.100000 -0.236706
v 0.398481 -0.100000 -0.205111
v 0.398481 0.100000 -0.205111
v 0.388985 -0.100000 -0.169890
v 0.388985 0.100000 -0.169890
v 0.360497 -0.100000 -0.126381
v 0.360497 0.100000 -0.126381
v 0.301105 -0.100000 -0.055939
v 0.301105 0.100000 -0.055939
v -0.038674 -0.100000 0.439917
v -0.038674 0.100000 0.439917
v -0.091160 -0.100000 0.488087
v -0.091160 0.100000 0.488087
v -0.156077 -0.100000 0.504144
v -0.156077 0.100000 0.504144
v -0.214606 -0.100000 0.487224
v -0.214606 0.100000 0.487224
v -0.234116 -0.100000 0.436464
v -0.234116 0.100000 0.436464
v -0.234116 -0.100000 -0.137431
v -0.234116 0.100000 -0.137431
v -0.247065 -0.100000 -0.136913
v -0.247065 0.100000 -0.136913
v -0.262431 -0.100000 -0.136740
v -0.262431 0.100000 -0.136740
v -0.357735 -0.100000 -0.153833
v -0.357735 0.100000 -0.153833
v -0.389503 -0.100000 -0.205110
v -0.389503 0.100000 -0.205110
v -0.376381 -0.100000 -0.245684
v -0.376381 0.100000 -0.245684
v -0.100138 -0.100000 -0.134668
v -0.100138 0.100000 -0.134668
v -0.100138 -0.100000 0.312845
v -0.100138 0.100000 0.312845
v 0.064054 -0.100000 0.055594
v 0.064054 0.100000 0.055594
v 0.187845 -0.100000 -0.127762
v 0.187845 0.100000 -0.127762
vt 0.628571 0.000000
vt 0.685714 0.000000
vt 0.657143 0.000000
vt 0.600000 0.000000
vt 0.714286 0.000000
vt 0.571429 0.000000
vt 0.942857 0.000000
vt 0.742857 0.000000
vt 0.971429 0.000000
vt 0.914286 0.000000
vt 1.000000 0.000000
vt 0.542857 0.000000
vt 0.514286 0.000000
vt 0.771429 0.000000
vt 0.828571 0.000000
vt 0.800000 0.000000
vt 0.857143 0.000000
vt 0.485714 0.000000
vt 0.457143 0.000000
vt 0.885714 0.000000
vt 0.428571 0.000000
vt 0.000000 0.000000
vt 0.400000 0.000000
vt 0.371429 0.000000
vt 0.342857 0.000000
vt 0.314286 0.000000
vt 0.057143 0.000000
vt 0.028571 0.000000
vt 0.085714 0.000000
vt 0.285714 0.000000
vt 0.257143 0.000000
vt 0.228571 0.000000
vt 0.200000 0.000000
vt 0.171429 0.000000
vt 0.114286 0.000000
vt 0.142857 0.000000
vt 0.685714 0.000000
vt 0.628571 0.000000
vt 0.657143 0.000000
vt 0.600000 0.000000
vt 0.714286 0.000000
vt 0.571429 0.000000
vt 0.942857 0.000000
vt 0.742857 0.000000
vt 0.971429 0.000000
vt 0.914286 0.000000
vt 1.000000 0.000000
vt 0.542857 0.000000
vt 0.514286 0.000000
vt 0.828571 0.000000
vt 0.771429 0.000000
vt 0.800000 0.000000
vt 0.857143 0.000000
vt 0.485714 0.000000
vt 0.457143 0.000000
vt 0.885714 0.000000
vt 0.428571 0.000000
vt 0.000000 0.000000
vt 0.400000 0.000000
vt 0.371429 0.000000
vt 0.342857 0.000000
vt 0.057143 0.000000
vt 0.314286 0.000000
vt 0.028571 0.000000
vt 0.085714 0.000000
vt 0.285714 0.000000
vt 0.257143 0.000000
vt 0.228571 0.000000
vt 0.200000 0.000000
vt 0.171429 0.000000
vt 0.114286 0.000000
vt 0.142857 0.000000
vt 0.000000 1.000000
vt 0.031250 1.000000
vt 0.031250 0.000000
vt 0.000000 0.000000
vt 0.062500 1.000000
vt 0.062500 0.000000
vt 0.093750 1.000000
vt 0.093750 0.000000
vt 0.125000 1.000000
vt 0.125000 0.000000
vt 0.156250 1.000000
vt 0.156250 0.000000
vt 0.187500 1.000000
vt 0.187500 0.000000
vt 0.218750 1.000000
vt 0.218750 0.000000
vt 0.250000 1.000000
vt 0.250000 0.000000
vt 0.281250 1.000000
vt 0.281250 0.000000
vt 0.312500 1.000000
vt 0.312500 0.000000
vt 0.343750 1.000000
vt 0.343750 0.000000
vt 0.375000 1.000000
vt 0.375000 0.000000
vt 0.406250 1.000000
vt 0.406250 0.000000
vt 0.437500 1.000000
vt 0.437500 0.000000
vt 0.468750 1.000000
vt 0.468750 0.000000
vt 0.500000 1.000000
vt 0.500000 0.000000
vt 0.531250 1.000000
vt 0.531250 0.000000
vt 0.562500 1.000000
vt 0.562500 0.000000
vt 0.593750 1.000000
vt 0.593750 0.000000
vt 0.625000 1.000000
vt 0.625000 0.000000
vt 0.656250 1.000000
vt 0.656250 0.000000
vt 0.687500 1.000000
vt 0.687500 0.000000
vt 0.718750 1.000000
vt 0.718750 0.000000
vt 0.750000 1.000000
vt 0.750000 0.000000
vt 0.781250 1.000000
vt 0.781250 0.000000
vt 0.812500 1.000000
vt 0.812500 0.000000
vt 0.843750 1.000000
vt 0.843750 0.000000
vt 0.875000 1.000000
vt 0.875000 0.000000
vt 0.906250 1.000000
vt 0.906250 0.000000
vt 0.937500 1.000000
vt 0.937500 0.000000
vt 0.968750 1.000000
vt 0.968750 0.000000
vt 1.000000 1.000000
vt 1.000000 0.000000
vt 0.000000 1.000000
vt 0.250000 1.000000
vt 0.250000 0.000000
vt 0.000000 0.000000
vt 0.500000 1.000000
vt 0.500000 0.000000
vt 0.750000 1.000000
vt 0.750000 0.000000
vt 1.000000 1.000000
vt 1.000000 0.000000
vn 0.0000 1.0000 -0.0000
vn 0.0000 -1.0000 -0.0000
vn -0.3053 0.0000 -0.9522
vn -0.0488 0.0000 -0.9988
vn -0.7043 0.0000 -0.7099
vn -0.9876 0.0000 -0.1570
vn -0.7117 0.0000 -0.7025
vn 0.0497 0.0000 -0.9987
vn 0.7706 0.0000 -0.6373
vn 0.9942 0.0000 -0.1078
vn 0.9993 0.0000 0.0371
vn 0.9986 0.0000 0.0526
vn 0.9991 0.0000 0.0415
vn 0.9999 0.0000 0.0123
vn 0.7143 0.0000 -0.6998
vn 0.0222 0.0000 -0.9997
vn 0.0551 0.0000 -0.9985
vn 0.2208 0.0000 -0.9753
vn 0.6682 0.0000 -0.7439
vn 0.9951 0.0000 -0.0989
vn 0.9124 0.0000 0.4091
vn 0.8020 0.0000 0.5973
vn 0.7957 0.0000 0.6057
vn 0.7554 0.0000 0.6552
vn 0.4728 0.0000 0.8811
vn -0.0194 0.0000 0.9998
vn -0.6762 0.0000 0.7367
vn -0.9832 0.0000 0.1824
vn -0.6928 0.0000 0.7211
vn 0.0256 0.0000 0.9997
vn -0.0830 0.0000 0.9965
vn -0.5620 0.0000 0.8271
vn -0.9927 0.0000 0.1206
vn -0.7748 0.0000 -0.6322
vn 0.6986 0.0000 0.7155
vn 0.2802 0.0000 -0.9599
vn -0.8359 0.0000 -0.5488
vn -0.8886 0.0000 0.4586
usemtl None
s off
f 23/1/1 25/2/1 24/3/1
f 22/4/1 25/2/1 23/1/1
f 22/4/1 26/5/1 25/2/1
f 21/6/1 26/5/1 22/4/1
f 21/6/1 34/7/1 26/5/1
f 34/7/1 27/8/1 26/5/1
f 21/6/1 35/9/1 34/7/1
f 33/10/1 27/8/1 34/7/1
f 21/6/1 36/11/1 35/9/1
f 20/12/1 36/11/1 21/6/1
f 19/13/1 36/11/1 20/12/1
f 19/13/1 33/10/1 36/11/1
f 19/13/1 27/8/1 33/10/1
f 28/14/1 30/15/1 29/16/1
f 27/8/1 30/15/1 28/14/1
f 19/13/1 30/15/1 27/8/1
f 19/13/1 31/17/1 30/15/1
f 18/18/1 31/17/1 19/13/1
f 17/19/1 31/17/1 18/18/1
f 17/19/1 32/20/1 31/17/1
f 16/21/1 32/20/1 17/19/1
f 16/21/1 1/22/1 32/20/1
f 15/23/1 1/22/1 16/21/1
f 14/24/1 1/22/1 15/23/1
f 13/25/1 1/22/1 14/24/1
f 12/26/1 3/27/1 13/25/1
f 3/27/1 1/22/1 13/25/1
f 3/27/1 2/28/1 1/22/1
f 12/26/1 4/29/1 3/27/1
f 11/30/1 4/29/1 12/26/1
f 10/31/1 4/29/1 11/30/1
f 9/32/1 4/29/1 10/31/1
f 8/33/1 4/29/1 9/32/1
f 7/34/1 4/29/1 8/33/1
f 7/34/1 5/35/1 4/29/1
f 6/36/1 5/35/1 7/34/1
f 61/37/2 59/38/2 60/39/2
f 61/37/2 58/40/2 59/38/2
f 62/41/2 58/40/2 61/37/2
f 62/41/2 57/42/2 58/40/2
f 70/43/2 57/42/2 62/41/2
f 63/44/2 70/43/2 62/41/2
f 71/45/2 57/42/2 70/43/2
f 63/44/2 69/46/2 70/43/2
f 72/47/2 57/42/2 71/45/2
f 72/47/2 56/48/2 57/42/2
f 72/47/2 55/49/2 56/48/2
f 69/46/2 55/49/2 72/47/2
f 63/44/2 55/49/2 69/46/2
f 66/50/2 64/51/2 65/52/2
f 66/50/2 63/44/2 64/51/2
f 66/50/2 55/49/2 63/44/2
f 67/53/2 55/49/2 66/50/2
f 67/53/2 54/54/2 55/49/2
f 67/53/2 53/55/2 54/54/2
f 68/56/2 53/55/2 67/53/2
f 68/56/2 52/57/2 53/55/2
f 37/58/2 52/57/2 68/56/2
f 37/58/2 51/59/2 52/57/2
f 37/58/2 50/60/2 51/59/2
f 37/58/2 49/61/2 50/60/2
f 39/62/2 48/63/2 49/61/2
f 37/58/2 39/62/2 49/61/2
f 38/64/2 39/62/2 37/58/2
f 40/65/2 48/63/2 39/62/2
f 40/65/2 47/66/2 48/63/2
f 40/65/2 46/67/2 47/66/2
f 40/65/2 45/68/2 46/67/2
f 40/65/2 44/69/2 45/68/2
f 40/65/2 43/70/2 44/69/2
f 41/71/2 43/70/2 40/65/2
f 41/71/2 42/72/2 43/70/2
s 1
f 74/73/3 76/74/4 75/75/4 73/76/3
f 76/74/4 78/77/5 77/78/5 75/75/4
f 78/77/5 80/79/6 79/80/6 77/78/5
f 80/79/6 82/81/7 81/82/7 79/80/6
f 82/81/7 84/83/8 83/84/8 81/82/7
f 84/83/8 86/85/9 85/86/9 83/84/8
f 86/85/9 88/87/10 87/88/10 85/86/9
f 88/87/10 90/89/11 89/90/11 87/88/10
f 90/89/11 92/91/12 91/92/12 89/90/11
f 92/91/12 94/93/13 93/94/13 91/92/12
f 94/93/13 96/95/14 95/96/14 93/94/13
f 96/95/14 98/97/15 97/98/15 95/96/14
f 98/97/15 100/99/16 99/100/16 97/98/15
f 100/99/16 102/101/17 101/102/17 99/100/16
f 102/101/17 104/103/18 103/104/18 101/102/17
f 104/103/18 106/105/19 105/106/19 103/104/18
f 106/105/19 108/107/20 107/108/20 105/106/19
f 108/107/20 110/109/21 109/110/21 107/108/20
f 110/109/21 112/111/22 111/112/22 109/110/21
f 112/111/22 114/113/23 113/114/23 111/112/22
f 114/113/23 116/115/24 115/116/24 113/114/23
f 116/115/24 118/117/25 117/118/25 115/116/24
f 118/117/25 120/119/26 119/120/26 117/118/25
f 120/119/26 122/121/27 121/122/27 119/120/26
f 122/121/27 124/123/28 123/124/28 121/122/27
f 124/123/28 126/125/29 125/126/29 123/124/28
f 126/125/29 128/127/30 127/128/30 125/126/29
f 128/127/30 130/129/31 129/130/31 127/128/30
f 130/129/31 132/131/32 131/132/32 129/130/31
f 132/131/32 134/133/33 133/134/33 131/132/32
f 134/133/33 136/135/34 135/136/34 133/134/33
f 136/135/34 74/137/3 73/138/3 135/136/34
f 138/139/35 140/140/36 139/141/36 137/142/35
f 140/140/36 142/143/37 141/144/37 139/141/36
f 142/143/37 144/145/38 143/146/38 141/144/37
f 144/145/38 138/147/35 137/148/35 143/146/38
