# Blender v2.90.1 OBJ File: 'Things.blend'
# www.blender.org
mtllib 8.mtl
o Text
v -0.241713 0.100000 -0.537293
v -0.131043 0.100000 -0.592196
v 0.007596 0.100000 -0.610497
v 0.139330 0.100000 -0.594613
v 0.243094 0.100000 -0.546961
v 0.320269 0.100000 -0.458391
v 0.347376 0.100000 -0.336326
v 0.309565 0.100000 -0.148826
v 0.190608 0.100000 -0.032459
v 0.282804 0.100000 0.057838
v 0.313536 0.100000 0.179558
v 0.289883 0.100000 0.299033
v 0.218923 0.100000 0.396409
v 0.118785 0.100000 0.458909
v -0.000690 0.100000 0.480663
v -0.218232 0.100000 0.410394
v -0.290746 0.100000 0.194061
v -0.282459 0.100000 0.120684
v -0.257597 0.100000 0.066298
v -0.218059 0.100000 0.028488
v -0.153315 0.100000 -0.010359
v -0.240849 0.100000 -0.064226
v -0.297652 0.100000 -0.122237
v -0.333909 0.100000 -0.205974
v -0.345995 0.100000 -0.316298
v -0.319924 0.100000 -0.441989
v -0.113950 0.100000 0.325967
v -0.067161 0.100000 0.349275
v 0.001381 0.100000 0.357044
v 0.079938 0.100000 0.344441
v 0.137431 0.100000 0.306630
v 0.168854 0.100000 0.251381
v 0.178867 0.100000 0.179558
v 0.138812 0.100000 0.096858
v 0.020028 0.100000 0.042127
v -0.051105 0.100000 0.066298
v -0.098757 0.100000 0.090470
v -0.141747 0.100000 0.135704
v -0.156077 0.100000 0.194061
v -0.145546 0.100000 0.273999
v -0.130525 0.100000 -0.148481
v -0.070960 0.100000 -0.112396
v 0.013812 0.100000 -0.080110
v 0.105318 0.100000 -0.127762
v 0.160221 0.100000 -0.168508
v 0.202348 0.100000 -0.237569
v 0.214088 0.100000 -0.330110
v 0.192852 0.100000 -0.405559
v 0.134668 0.100000 -0.459254
v 0.074931 0.100000 -0.482044
v 0.007597 0.100000 -0.489641
v -0.095649 0.100000 -0.475311
v -0.162293 0.100000 -0.432320
v -0.191298 0.100000 -0.375000
v -0.200967 0.100000 -0.294199
v -0.183356 0.100000 -0.212534
v -0.241713 -0.100000 -0.537293
v -0.131043 -0.100000 -0.592196
v 0.007596 -0.100000 -0.610497
v 0.139330 -0.100000 -0.594613
v 0.243094 -0.100000 -0.546961
v 0.320269 -0.100000 -0.458391
v 0.347376 -0.100000 -0.336326
v 0.309565 -0.100000 -0.148826
v 0.190608 -0.100000 -0.032459
v 0.282804 -0.100000 0.057838
v 0.313536 -0.100000 0.179558
v 0.289883 -0.100000 0.299033
v 0.218923 -0.100000 0.396409
v 0.118785 -0.100000 0.458909
v -0.000690 -0.100000 0.480663
v -0.218232 -0.100000 0.410394
v -0.290746 -0.100000 0.194061
v -0.282459 -0.100000 0.120684
v -0.257597 -0.100000 0.066298
v -0.218059 -0.100000 0.028488
v -0.153315 -0.100000 -0.010359
v -0.240849 -0.100000 -0.064226
v -0.297652 -0.100000 -0.122237
v -0.333909 -0.100000 -0.205974
v -0.345995 -0.100000 -0.316298
v -0.319924 -0.100000 -0.441989
v -0.113950 -0.100000 0.325967
v -0.067161 -0.100000 0.349275
v 0.001381 -0.100000 0.357044
v 0.079938 -0.100000 0.344441
v 0.137431 -0.100000 0.306630
v 0.168854 -0.100000 0.251381
v 0.178867 -0.100000 0.179558
v 0.138812 -0.100000 0.096858
v 0.020028 -0.100000 0.042127
v -0.051105 -0.100000 0.066298
v -0.098757 -0.100000 0.090470
v -0.141747 -0.100000 0.135704
v -0.156077 -0.100000 0.194061
v -0.145546 -0.100000 0.273999
v -0.130525 -0.100000 -0.148481
v -0.070960 -0.100000 -0.112396
v 0.013812 -0.100000 -0.080110
v 0.105318 -0.100000 -0.127762
v 0.160221 -0.100000 -0.168508
v 0.202348 -0.100000 -0.237569
v 0.214088 -0.100000 -0.330110
v 0.192852 -0.100000 -0.405559
v 0.134668 -0.100000 -0.459254
v 0.074931 -0.100000 -0.482044
v 0.007597 -0.100000 -0.489641
v -0.095649 -0.100000 -0.475311
v -0.162293 -0.100000 -0.432320
v -0.191298 -0.100000 -0.375000
v -0.200967 -0.100000 -0.294199
v -0.183356 -0.100000 -0.212534
v -0.241713 -0.100000 -0.537293
v -0.241713 0.100000 -0.537293
v -0.131043 -0.100000 -0.592196
v -0.131043 0.100000 -0.592196
v 0.007596 -0.100000 -0.610497
v 0.007596 0.100000 -0.610497
v 0.139330 -0.100000 -0.594613
v 0.139330 0.100000 -0.594613
v 0.243094 -0.100000 -0.546961
v 0.243094 0.100000 -0.546961
v 0.320269 -0.100000 -0.458391
v 0.320269 0.100000 -0.458391
v 0.347376 -0.100000 -0.336326
v 0.347376 0.100000 -0.336326
v 0.309565 -0.100000 -0.148826
v 0.309565 0.100000 -0.148826
v 0.190608 -0.100000 -0.032459
v 0.190608 0.100000 -0.032459
v 0.282804 -0.100000 0.057838
v 0.282804 0.100000 0.057838
v 0.313536 -0.100000 0.179558
v 0.313536 0.100000 0.179558
v 0.289883 -0.100000 0.299033
v 0.289883 0.100000 0.299033
v 0.218923 -0.100000 0.396409
v 0.218923 0.100000 0.396409
v 0.118785 -0.100000 0.458909
v 0.118785 0.100000 0.458909
v -0.000690 -0.100000 0.480663
v -0.000690 0.100000 0.480663
v -0.218232 -0.100000 0.410394
v -0.218232 0.100000 0.410394
v -0.290746 -0.100000 0.194061
v -0.290746 0.100000 0.194061
v -0.282459 -0.100000 0.120684
v -0.282459 0.100000 0.120684
v -0.257597 -0.100000 0.066298
v -0.257597 0.100000 0.066298
v -0.218059 -0.100000 0.028488
v -0.218059 0.100000 0.028488
v -0.153315 -0.100000 -0.010359
v -0.153315 0.100000 -0.010359
v -0.240849 -0.100000 -0.064226
v -0.240849 0.100000 -0.064226
v -0.297652 -0.100000 -0.122237
v -0.297652 0.100000 -0.122237
v -0.333909 -0.100000 -0.205974
v -0.333909 0.100000 -0.205974
v -0.345995 -0.100000 -0.316298
v -0.345995 0.100000 -0.316298
v -0.319924 -0.100000 -0.441989
v -0.319924 0.100000 -0.441989
v -0.113950 -0.100000 0.325967
v -0.113950 0.100000 0.325967
v -0.067161 -0.100000 0.349275
v -0.067161 0.100000 0.349275
v 0.001381 -0.100000 0.357044
v 0.001381 0.100000 0.357044
v 0.079938 -0.100000 0.344441
v 0.079938 0.100000 0.344441
v 0.137431 -0.100000 0.306630
v 0.137431 0.100000 0.306630
v 0.168854 -0.100000 0.251381
v 0.168854 0.100000 0.251381
v 0.178867 -0.100000 0.179558
v 0.178867 0.100000 0.179558
v 0.138812 -0.100000 0.096858
v 0.138812 0.100000 0.096858
v 0.020028 -0.100000 0.042127
v 0.020028 0.100000 0.042127
v -0.051105 -0.100000 0.066298
v -0.051105 0.100000 0.066298
v -0.098757 -0.100000 0.090470
v -0.098757 0.100000 0.090470
v -0.141747 -0.100000 0.135704
v -0.141747 0.100000 0.135704
v -0.156077 -0.100000 0.194061
v -0.156077 0.100000 0.194061
v -0.145546 -0.100000 0.273999
v -0.145546 0.100000 0.273999
v -0.130525 -0.100000 -0.148481
v -0.130525 0.100000 -0.148481
v -0.070960 -0.100000 -0.112396
v -0.070960 0.100000 -0.112396
v 0.013812 -0.100000 -0.080110
v 0.013812 0.100000 -0.080110
v 0.105318 -0.100000 -0.127762
v 0.105318 0.100000 -0.127762
v 0.160221 -0.100000 -0.168508
v 0.160221 0.100000 -0.168508
v 0.202348 -0.100000 -0.237569
v 0.202348 0.100000 -0.237569
v 0.214088 -0.100000 -0.330110
v 0.214088 0.100000 -0.330110
v 0.192852 -0.100000 -0.405559
v 0.192852 0.100000 -0.405559
v 0.134668 -0.100000 -0.459254
v 0.134668 0.100000 -0.459254
v 0.074931 -0.100000 -0.482044
v 0.074931 0.100000 -0.482044
v 0.007597 -0.100000 -0.489641
v 0.007597 0.100000 -0.489641
v -0.095649 -0.100000 -0.475311
v -0.095649 0.100000 -0.475311
v -0.162293 -0.100000 -0.432320
v -0.162293 0.100000 -0.432320
v -0.191298 -0.100000 -0.375000
v -0.191298 0.100000 -0.375000
v -0.200967 -0.100000 -0.294199
v -0.200967 0.100000 -0.294199
v -0.183356 -0.100000 -0.212534
v -0.183356 0.100000 -0.212534
vt 0.236364 0.000000
vt 0.272727 0.000000
vt 0.254545 0.000000
vt 0.218182 0.000000
vt 0.490909 0.000000
vt 0.472727 0.000000
vt 0.290909 0.000000
vt 0.200000 0.000000
vt 0.527273 0.000000
vt 0.509091 0.000000
vt 0.545455 0.000000
vt 0.709091 0.000000
vt 0.563636 0.000000
vt 0.181818 0.000000
vt 0.690909 0.000000
vt 0.581818 0.000000
vt 0.672727 0.000000
vt 0.309091 0.000000
vt 0.163636 0.000000
vt 0.600000 0.000000
vt 0.654545 0.000000
vt 0.327273 0.000000
vt 0.618182 0.000000
vt 0.636364 0.000000
vt 0.345455 0.000000
vt 0.145455 0.000000
vt 0.363636 0.000000
vt 0.381818 0.000000
vt 0.127273 0.000000
vt 0.763636 0.000000
vt 0.400000 0.000000
vt 0.781818 0.000000
vt 0.745455 0.000000
vt 0.727273 0.000000
vt 0.418182 0.000000
vt 0.800000 0.000000
vt 1.000000 0.000000
vt 0.109091 0.000000
vt 0.818182 0.000000
vt 0.436364 0.000000
vt 0.981818 0.000000
vt 0.836364 0.000000
vt 0.963636 0.000000
vt 0.454545 0.000000
vt 0.854545 0.000000
vt 0.090909 0.000000
vt 0.945455 0.000000
vt 0.872727 0.000000
vt 0.927273 0.000000
vt 0.000000 0.000000
vt 0.072727 0.000000
vt 0.890909 0.000000
vt 0.909091 0.000000
vt 0.018182 0.000000
vt 0.054545 0.000000
vt 0.036364 0.000000
vt 0.272727 0.000000
vt 0.236364 0.000000
vt 0.254545 0.000000
vt 0.218182 0.000000
vt 0.490909 0.000000
vt 0.472727 0.000000
vt 0.290909 0.000000
vt 0.527273 0.000000
vt 0.200000 0.000000
vt 0.509091 0.000000
vt 0.545455 0.000000
vt 0.709091 0.000000
vt 0.563636 0.000000
vt 0.181818 0.000000
vt 0.690909 0.000000
vt 0.581818 0.000000
vt 0.672727 0.000000
vt 0.309091 0.000000
vt 0.163636 0.000000
vt 0.600000 0.000000
vt 0.654545 0.000000
vt 0.327273 0.000000
vt 0.618182 0.000000
vt 0.636364 0.000000
vt 0.345455 0.000000
vt 0.145455 0.000000
vt 0.363636 0.000000
vt 0.381818 0.000000
vt 0.763636 0.000000
vt 0.127273 0.000000
vt 0.400000 0.000000
vt 0.781818 0.000000
vt 0.745455 0.000000
vt 0.727273 0.000000
vt 0.418182 0.000000
vt 0.800000 0.000000
vt 1.000000 0.000000
vt 0.109091 0.000000
vt 0.818182 0.000000
vt 0.436364 0.000000
vt 0.981818 0.000000
vt 0.836364 0.000000
vt 0.963636 0.000000
vt 0.454545 0.000000
vt 0.854545 0.000000
vt 0.090909 0.000000
vt 0.945455 0.000000
vt 0.872727 0.000000
vt 0.927273 0.000000
vt 0.000000 0.000000
vt 0.072727 0.000000
vt 0.890909 0.000000
vt 0.909091 0.000000
vt 0.018182 0.000000
vt 0.054545 0.000000
vt 0.036364 0.000000
vt 0.000000 1.000000
vt 0.038462 1.000000
vt 0.038462 0.000000
vt 0.000000 0.000000
vt 0.076923 1.000000
vt 0.076923 0.000000
vt 0.115385 1.000000
vt 0.115385 0.000000
vt 0.153846 1.000000
vt 0.153846 0.000000
vt 0.192308 1.000000
vt 0.192308 0.000000
vt 0.230769 1.000000
vt 0.230769 0.000000
vt 0.269231 1.000000
vt 0.269231 0.000000
vt 0.307692 1.000000
vt 0.307692 0.000000
vt 0.346154 1.000000
vt 0.346154 0.000000
vt 0.384615 1.000000
vt 0.384615 0.000000
vt 0.423077 1.000000
vt 0.423077 0.000000
vt 0.461538 1.000000
vt 0.461538 0.000000
vt 0.500000 1.000000
vt 0.500000 0.000000
vt 0.538462 1.000000
vt 0.538462 0.000000
vt 0.576923 1.000000
vt 0.576923 0.000000
vt 0.615385 1.000000
vt 0.615385 0.000000
vt 0.653846 1.000000
vt 0.653846 0.000000
vt 0.692308 1.000000
vt 0.692308 0.000000
vt 0.730769 1.000000
vt 0.730769 0.000000
vt 0.769231 1.000000
vt 0.769231 0.000000
vt 0.807692 1.000000
vt 0.807692 0.000000
vt 0.846154 1.000000
vt 0.846154 0.000000
vt 0.884615 1.000000
vt 0.884615 0.000000
vt 0.923077 1.000000
vt 0.923077 0.000000
vt 0.961538 1.000000
vt 0.961538 0.000000
vt 1.000000 1.000000
vt 1.000000 0.000000
vt 0.000000 1.000000
vt 0.071429 1.000000
vt 0.071429 0.000000
vt 0.000000 0.000000
vt 0.142857 1.000000
vt 0.142857 0.000000
vt 0.214286 1.000000
vt 0.214286 0.000000
vt 0.285714 1.000000
vt 0.285714 0.000000
vt 0.357143 1.000000
vt 0.357143 0.000000
vt 0.428571 1.000000
vt 0.428571 0.000000
vt 0.500000 1.000000
vt 0.500000 0.000000
vt 0.571429 1.000000
vt 0.571429 0.000000
vt 0.642857 1.000000
vt 0.642857 0.000000
vt 0.714286 1.000000
vt 0.714286 0.000000
vt 0.785714 1.000000
vt 0.785714 0.000000
vt 0.857143 1.000000
vt 0.857143 0.000000
vt 0.928571 1.000000
vt 0.928571 0.000000
vt 1.000000 1.000000
vt 1.000000 0.000000
vt 0.000000 1.000000
vt 0.062500 1.000000
vt 0.062500 0.000000
vt 0.000000 0.000000
vt 0.125000 1.000000
vt 0.125000 0.000000
vt 0.187500 1.000000
vt 0.187500 0.000000
vt 0.250000 1.000000
vt 0.250000 0.000000
vt 0.312500 1.000000
vt 0.312500 0.000000
vt 0.375000 1.000000
vt 0.375000 0.000000
vt 0.437500 1.000000
vt 0.437500 0.000000
vt 0.500000 1.000000
vt 0.500000 0.000000
vt 0.562500 1.000000
vt 0.562500 0.000000
vt 0.625000 1.000000
vt 0.625000 0.000000
vt 0.687500 1.000000
vt 0.687500 0.000000
vt 0.750000 1.000000
vt 0.750000 0.000000
vt 0.812500 1.000000
vt 0.812500 0.000000
vt 0.875000 1.000000
vt 0.875000 0.000000
vt 0.937500 1.000000
vt 0.937500 0.000000
vt 1.000000 1.000000
vt 1.000000 0.000000
vn 0.0000 1.0000 -0.0000
vn 0.0000 -1.0000 -0.0000
vn -0.6226 0.0000 -0.7825
vn -0.2916 0.0000 -0.9565
vn -0.0056 0.0000 -1.0000
vn 0.2718 0.0000 -0.9623
vn 0.5990 0.0000 -0.8007
vn 0.8926 0.0000 -0.4508
vn 0.9999 0.0000 -0.0097
vn 0.8787 0.0000 0.4774
vn 1.0000 0.0000 0.0003
vn 0.8670 0.0000 -0.4982
vn 0.9996 0.0000 -0.0259
vn 0.9161 0.0000 0.4010
vn 0.6813 0.0000 0.7320
vn 0.3607 0.0000 0.9326
vn -0.0661 0.0000 0.9978
vn -0.7032 0.0000 0.7110
vn -0.9944 0.0000 0.1053
vn -0.9636 0.0000 -0.2673
vn -0.8149 0.0000 -0.5796
vn -0.6066 0.0000 -0.7950
vn -1.0000 0.0000 -0.0056
vn -0.6240 0.0000 0.7815
vn -0.8300 0.0000 0.5578
vn -0.9667 0.0000 0.2560
vn -0.9988 0.0000 -0.0477
vn -0.9022 0.0000 -0.4312
vn 0.6767 0.0000 -0.7362
vn 0.2835 0.0000 -0.9589
vn -0.0231 0.0000 -0.9997
vn -0.3620 0.0000 -0.9322
vn -0.7296 0.0000 -0.6839
vn -0.9467 0.0000 -0.3220
vn -0.9878 0.0000 0.1556
vn -0.7002 0.0000 0.7139
vn -0.0521 0.0000 0.9986
vn 0.3880 0.0000 0.9216
vn 0.5973 0.0000 0.8020
vn 0.8774 0.0000 0.4798
vn 0.9985 0.0000 0.0549
vn 0.9432 0.0000 -0.3322
vn 0.6540 0.0000 -0.7565
vn 0.4388 0.0000 -0.8986
vn -0.0581 0.0000 -0.9983
vn -0.5306 0.0000 -0.8476
vn -0.7384 0.0000 -0.6743
vn -0.9438 0.0000 -0.3306
vn -0.9973 0.0000 0.0740
vn -0.8525 0.0000 0.5226
vn -0.5268 0.0000 0.8499
vn -0.2361 0.0000 0.9717
vn 0.0128 0.0000 0.9999
vn 0.3480 0.0000 0.9375
vn 0.7430 0.0000 0.6692
vn 0.9572 0.0000 0.2896
vn 0.9989 0.0000 -0.0466
vn 0.9000 0.0000 -0.4359
usemtl None
s off
f 14/1/1 16/2/1 15/3/1
f 13/4/1 16/2/1 14/1/1
f 13/4/1 28/5/1 16/2/1
f 28/5/1 27/6/1 16/2/1
f 27/6/1 17/7/1 16/2/1
f 12/8/1 30/9/1 13/4/1
f 30/9/1 29/10/1 13/4/1
f 29/10/1 28/5/1 13/4/1
f 12/8/1 31/11/1 30/9/1
f 40/12/1 17/7/1 27/6/1
f 12/8/1 32/13/1 31/11/1
f 11/14/1 32/13/1 12/8/1
f 39/15/1 17/7/1 40/12/1
f 11/14/1 33/16/1 32/13/1
f 38/17/1 17/7/1 39/15/1
f 38/17/1 18/18/1 17/7/1
f 10/19/1 33/16/1 11/14/1
f 10/19/1 34/20/1 33/16/1
f 37/21/1 18/18/1 38/17/1
f 37/21/1 19/22/1 18/18/1
f 10/19/1 35/23/1 34/20/1
f 36/24/1 19/22/1 37/21/1
f 35/23/1 19/22/1 36/24/1
f 35/23/1 20/25/1 19/22/1
f 9/26/1 35/23/1 10/19/1
f 9/26/1 20/25/1 35/23/1
f 9/26/1 21/27/1 20/25/1
f 9/26/1 22/28/1 21/27/1
f 8/29/1 43/30/1 9/26/1
f 43/30/1 22/28/1 9/26/1
f 43/30/1 23/31/1 22/28/1
f 8/29/1 44/32/1 43/30/1
f 42/33/1 23/31/1 43/30/1
f 41/34/1 23/31/1 42/33/1
f 41/34/1 24/35/1 23/31/1
f 8/29/1 45/36/1 44/32/1
f 56/37/1 24/35/1 41/34/1
f 7/38/1 45/36/1 8/29/1
f 7/38/1 46/39/1 45/36/1
f 56/37/1 25/40/1 24/35/1
f 55/41/1 25/40/1 56/37/1
f 7/38/1 47/42/1 46/39/1
f 54/43/1 25/40/1 55/41/1
f 54/43/1 26/44/1 25/40/1
f 7/38/1 48/45/1 47/42/1
f 6/46/1 48/45/1 7/38/1
f 53/47/1 26/44/1 54/43/1
f 6/46/1 49/48/1 48/45/1
f 52/49/1 26/44/1 53/47/1
f 52/49/1 1/50/1 26/44/1
f 5/51/1 49/48/1 6/46/1
f 5/51/1 50/52/1 49/48/1
f 51/53/1 1/50/1 52/49/1
f 5/51/1 51/53/1 50/52/1
f 5/51/1 1/50/1 51/53/1
f 5/51/1 2/54/1 1/50/1
f 4/55/1 2/54/1 5/51/1
f 4/55/1 3/56/1 2/54/1
f 72/57/2 70/58/2 71/59/2
f 72/57/2 69/60/2 70/58/2
f 84/61/2 69/60/2 72/57/2
f 83/62/2 84/61/2 72/57/2
f 73/63/2 83/62/2 72/57/2
f 86/64/2 68/65/2 69/60/2
f 85/66/2 86/64/2 69/60/2
f 84/61/2 85/66/2 69/60/2
f 87/67/2 68/65/2 86/64/2
f 73/63/2 96/68/2 83/62/2
f 88/69/2 68/65/2 87/67/2
f 88/69/2 67/70/2 68/65/2
f 73/63/2 95/71/2 96/68/2
f 89/72/2 67/70/2 88/69/2
f 73/63/2 94/73/2 95/71/2
f 74/74/2 94/73/2 73/63/2
f 89/72/2 66/75/2 67/70/2
f 90/76/2 66/75/2 89/72/2
f 74/74/2 93/77/2 94/73/2
f 75/78/2 93/77/2 74/74/2
f 91/79/2 66/75/2 90/76/2
f 75/78/2 92/80/2 93/77/2
f 75/78/2 91/79/2 92/80/2
f 76/81/2 91/79/2 75/78/2
f 91/79/2 65/82/2 66/75/2
f 76/81/2 65/82/2 91/79/2
f 77/83/2 65/82/2 76/81/2
f 78/84/2 65/82/2 77/83/2
f 99/85/2 64/86/2 65/82/2
f 78/84/2 99/85/2 65/82/2
f 79/87/2 99/85/2 78/84/2
f 100/88/2 64/86/2 99/85/2
f 79/87/2 98/89/2 99/85/2
f 79/87/2 97/90/2 98/89/2
f 80/91/2 97/90/2 79/87/2
f 101/92/2 64/86/2 100/88/2
f 80/91/2 112/93/2 97/90/2
f 101/92/2 63/94/2 64/86/2
f 102/95/2 63/94/2 101/92/2
f 81/96/2 112/93/2 80/91/2
f 81/96/2 111/97/2 112/93/2
f 103/98/2 63/94/2 102/95/2
f 81/96/2 110/99/2 111/97/2
f 82/100/2 110/99/2 81/96/2
f 104/101/2 63/94/2 103/98/2
f 104/101/2 62/102/2 63/94/2
f 82/100/2 109/103/2 110/99/2
f 105/104/2 62/102/2 104/101/2
f 82/100/2 108/105/2 109/103/2
f 57/106/2 108/105/2 82/100/2
f 105/104/2 61/107/2 62/102/2
f 106/108/2 61/107/2 105/104/2
f 57/106/2 107/109/2 108/105/2
f 107/109/2 61/107/2 106/108/2
f 57/106/2 61/107/2 107/109/2
f 58/110/2 61/107/2 57/106/2
f 58/110/2 60/111/2 61/107/2
f 59/112/2 60/111/2 58/110/2
s 1
f 114/113/3 116/114/4 115/115/4 113/116/3
f 116/114/4 118/117/5 117/118/5 115/115/4
f 118/117/5 120/119/6 119/120/6 117/118/5
f 120/119/6 122/121/7 121/122/7 119/120/6
f 122/121/7 124/123/8 123/124/8 121/122/7
f 124/123/8 126/125/9 125/126/9 123/124/8
f 126/125/9 128/127/10 127/128/10 125/126/9
f 128/127/10 130/129/11 129/130/11 127/128/10
f 130/129/11 132/131/12 131/132/12 129/130/11
f 132/131/12 134/133/13 133/134/13 131/132/12
f 134/133/13 136/135/14 135/136/14 133/134/13
f 136/135/14 138/137/15 137/138/15 135/136/14
f 138/137/15 140/139/16 139/140/16 137/138/15
f 140/139/16 142/141/17 141/142/17 139/140/16
f 142/141/17 144/143/18 143/144/18 141/142/17
f 144/143/18 146/145/19 145/146/19 143/144/18
f 146/145/19 148/147/20 147/148/20 145/146/19
f 148/147/20 150/149/21 149/150/21 147/148/20
f 150/149/21 152/151/22 151/152/22 149/150/21
f 152/151/22 154/153/23 153/154/23 151/152/22
f 154/153/23 156/155/24 155/156/24 153/154/23
f 156/155/24 158/157/25 157/158/25 155/156/24
f 158/157/25 160/159/26 159/160/26 157/158/25
f 160/159/26 162/161/27 161/162/27 159/160/26
f 162/161/27 164/163/28 163/164/28 161/162/27
f 164/163/28 114/165/3 113/166/3 163/164/28
f 166/167/29 168/168/30 167/169/30 165/170/29
f 168/168/30 170/171/31 169/172/31 167/169/30
f 170/171/31 172/173/32 171/174/32 169/172/31
f 172/173/32 174/175/33 173/176/33 171/174/32
f 174/175/33 176/177/34 175/178/34 173/176/33
f 176/177/34 178/179/35 177/180/35 175/178/34
f 178/179/35 180/181/36 179/182/36 177/180/35
f 180/181/36 182/183/37 181/184/37 179/182/36
f 182/183/37 184/185/38 183/186/38 181/184/37
f 184/185/38 186/187/39 185/188/39 183/186/38
f 186/187/39 188/189/40 187/190/40 185/188/39
f 188/189/40 190/191/41 189/192/41 187/190/40
f 190/191/41 192/193/42 191/194/42 189/192/41
f 192/193/42 166/195/29 165/196/29 191/194/42
f 194/197/43 196/198/44 195/199/44 193/200/43
f 196/198/44 198/201/45 197/202/45 195/199/44
f 198/201/45 200/203/46 199/204/46 197/202/45
f 200/203/46 202/205/47 201/206/47 199/204/46
f 202/205/47 204/207/48 203/208/48 201/206/47
f 204/207/48 206/209/49 205/210/49 203/208/48
f 206/209/49 208/211/50 207/212/50 205/210/49
f 208/211/50 210/213/51 209/214/51 207/212/50
f 210/213/51 212/215/52 211/216/52 209/214/51
f 212/215/52 214/217/53 213/218/53 211/216/52
f 214/217/53 216/219/54 215/220/54 213/218/53
f 216/219/54 218/221/55 217/222/55 215/220/54
f 218/221/55 220/223/56 219/224/56 217/222/55
f 220/223/56 222/225/57 221/226/57 219/224/56
f 222/225/57 224/227/58 223/228/58 221/226/57
f 224/227/58 194/229/43 193/230/43 223/228/58
