# Blender v2.90.1 OBJ File: 'Things.blend'
# www.blender.org
mtllib 9.mtl
o Text
v -0.301105 0.100000 -0.221685
v -0.218060 0.100000 -0.377762
v -0.109807 0.100000 -0.489641
v -0.044199 0.100000 -0.530732
v 0.051795 0.100000 -0.579420
v 0.156595 0.100000 -0.623964
v 0.223757 0.100000 -0.638812
v 0.249568 0.100000 -0.633633
v 0.270373 0.100000 -0.618094
v 0.284099 0.100000 -0.595649
v 0.288674 0.100000 -0.569751
v 0.276933 0.100000 -0.534012
v 0.241713 0.100000 -0.508287
v 0.126381 0.100000 -0.468923
v 0.030559 0.100000 -0.422134
v -0.042818 0.100000 -0.368784
v -0.102210 0.100000 -0.300242
v -0.156077 0.100000 -0.207873
v -0.185774 0.100000 -0.148481
v -0.141575 0.100000 -0.169717
v -0.086326 0.100000 -0.189226
v -0.031250 0.100000 -0.203211
v 0.012431 0.100000 -0.207873
v 0.134150 0.100000 -0.189744
v 0.238260 0.100000 -0.135359
v 0.325276 0.100000 -0.028315
v 0.354282 0.100000 0.116022
v 0.324586 0.100000 0.284703
v 0.235497 0.100000 0.405387
v 0.118094 0.100000 0.467023
v -0.031077 0.100000 0.487569
v -0.151588 0.100000 0.461671
v -0.258978 0.100000 0.383978
v -0.338916 0.100000 0.262776
v -0.366022 0.100000 0.118785
v -0.350138 0.100000 -0.054040
v -0.158494 0.100000 0.287293
v -0.085722 0.100000 0.348930
v -0.011740 0.100000 0.369475
v 0.089865 0.100000 0.354454
v 0.162638 0.100000 0.309392
v 0.206578 0.100000 0.234116
v 0.221685 0.100000 0.128453
v 0.203902 0.100000 0.038329
v 0.150552 0.100000 -0.029006
v 0.079593 0.100000 -0.065780
v -0.007597 0.100000 -0.078039
v -0.064054 0.100000 -0.069751
v -0.122928 0.100000 -0.044889
v -0.161602 0.100000 -0.020200
v -0.222376 0.100000 0.023481
v -0.229109 0.100000 0.077348
v -0.231354 0.100000 0.118785
v -0.212793 0.100000 0.204075
v -0.301105 -0.100000 -0.221685
v -0.218060 -0.100000 -0.377762
v -0.109807 -0.100000 -0.489641
v -0.044199 -0.100000 -0.530732
v 0.051795 -0.100000 -0.579420
v 0.156595 -0.100000 -0.623964
v 0.223757 -0.100000 -0.638812
v 0.249568 -0.100000 -0.633633
v 0.270373 -0.100000 -0.618094
v 0.284099 -0.100000 -0.595649
v 0.288674 -0.100000 -0.569751
v 0.276933 -0.100000 -0.534012
v 0.241713 -0.100000 -0.508287
v 0.126381 -0.100000 -0.468923
v 0.030559 -0.100000 -0.422134
v -0.042818 -0.100000 -0.368784
v -0.102210 -0.100000 -0.300242
v -0.156077 -0.100000 -0.207873
v -0.185774 -0.100000 -0.148481
v -0.141575 -0.100000 -0.169717
v -0.086326 -0.100000 -0.189226
v -0.031250 -0.100000 -0.203211
v 0.012431 -0.100000 -0.207873
v 0.134150 -0.100000 -0.189744
v 0.238260 -0.100000 -0.135359
v 0.325276 -0.100000 -0.028315
v 0.354282 -0.100000 0.116022
v 0.324586 -0.100000 0.284703
v 0.235497 -0.100000 0.405387
v 0.118094 -0.100000 0.467023
v -0.031077 -0.100000 0.487569
v -0.151588 -0.100000 0.461671
v -0.258978 -0.100000 0.383978
v -0.338916 -0.100000 0.262776
v -0.366022 -0.100000 0.118785
v -0.350138 -0.100000 -0.054040
v -0.158494 -0.100000 0.287293
v -0.085722 -0.100000 0.348930
v -0.011740 -0.100000 0.369475
v 0.089865 -0.100000 0.354454
v 0.162638 -0.100000 0.309392
v 0.206578 -0.100000 0.234116
v 0.221685 -0.100000 0.128453
v 0.203902 -0.100000 0.038329
v 0.150552 -0.100000 -0.029006
v 0.079593 -0.100000 -0.065780
v -0.007597 -0.100000 -0.078039
v -0.064054 -0.100000 -0.069751
v -0.122928 -0.100000 -0.044889
v -0.161602 -0.100000 -0.020200
v -0.222376 -0.100000 0.023481
v -0.229109 -0.100000 0.077348
v -0.231354 -0.100000 0.118785
v -0.212793 -0.100000 0.204075
v -0.301105 -0.100000 -0.221685
v -0.301105 0.100000 -0.221685
v -0.218060 -0.100000 -0.377762
v -0.218060 0.100000 -0.377762
v -0.109807 -0.100000 -0.489641
v -0.109807 0.100000 -0.489641
v -0.044199 -0.100000 -0.530732
v -0.044199 0.100000 -0.530732
v 0.051795 -0.100000 -0.579420
v 0.051795 0.100000 -0.579420
v 0.156595 -0.100000 -0.623964
v 0.156595 0.100000 -0.623964
v 0.223757 -0.100000 -0.638812
v 0.223757 0.100000 -0.638812
v 0.249568 -0.100000 -0.633633
v 0.249568 0.100000 -0.633633
v 0.270373 -0.100000 -0.618094
v 0.270373 0.100000 -0.618094
v 0.284099 -0.100000 -0.595649
v 0.284099 0.100000 -0.595649
v 0.288674 -0.100000 -0.569751
v 0.288674 0.100000 -0.569751
v 0.276933 -0.100000 -0.534012
v 0.276933 0.100000 -0.534012
v 0.241713 -0.100000 -0.508287
v 0.241713 0.100000 -0.508287
v 0.126381 -0.100000 -0.468923
v 0.126381 0.100000 -0.468923
v 0.030559 -0.100000 -0.422134
v 0.030559 0.100000 -0.422134
v -0.042818 -0.100000 -0.368784
v -0.042818 0.100000 -0.368784
v -0.102210 -0.100000 -0.300242
v -0.102210 0.100000 -0.300242
v -0.156077 -0.100000 -0.207873
v -0.156077 0.100000 -0.207873
v -0.185774 -0.100000 -0.148481
v -0.185774 0.100000 -0.148481
v -0.141575 -0.100000 -0.169717
v -0.141575 0.100000 -0.169717
v -0.086326 -0.100000 -0.189226
v -0.086326 0.100000 -0.189226
v -0.031250 -0.100000 -0.203211
v -0.031250 0.100000 -0.203211
v 0.012431 -0.100000 -0.207873
v 0.012431 0.100000 -0.207873
v 0.134150 -0.100000 -0.189744
v 0.134150 0.100000 -0.189744
v 0.238260 -0.100000 -0.135359
v 0.238260 0.100000 -0.135359
v 0.325276 -0.100000 -0.028315
v 0.325276 0.100000 -0.028315
v 0.354282 -0.100000 0.116022
v 0.354282 0.100000 0.116022
v 0.324586 -0.100000 0.284703
v 0.324586 0.100000 0.284703
v 0.235497 -0.100000 0.405387
v 0.235497 0.100000 0.405387
v 0.118094 -0.100000 0.467023
v 0.118094 0.100000 0.467023
v -0.031077 -0.100000 0.487569
v -0.031077 0.100000 0.487569
v -0.151588 -0.100000 0.461671
v -0.151588 0.100000 0.461671
v -0.258978 -0.100000 0.383978
v -0.258978 0.100000 0.383978
v -0.338916 -0.100000 0.262776
v -0.338916 0.100000 0.262776
v -0.366022 -0.100000 0.118785
v -0.366022 0.100000 0.118785
v -0.350138 -0.100000 -0.054040
v -0.350138 0.100000 -0.054040
v -0.158494 -0.100000 0.287293
v -0.158494 0.100000 0.287293
v -0.085722 -0.100000 0.348930
v -0.085722 0.100000 0.348930
v -0.011740 -0.100000 0.369475
v -0.011740 0.100000 0.369475
v 0.089865 -0.100000 0.354454
v 0.089865 0.100000 0.354454
v 0.162638 -0.100000 0.309392
v 0.162638 0.100000 0.309392
v 0.206578 -0.100000 0.234116
v 0.206578 0.100000 0.234116
v 0.221685 -0.100000 0.128453
v 0.221685 0.100000 0.128453
v 0.203902 -0.100000 0.038329
v 0.203902 0.100000 0.038329
v 0.150552 -0.100000 -0.029006
v 0.150552 0.100000 -0.029006
v 0.079593 -0.100000 -0.065780
v 0.079593 0.100000 -0.065780
v -0.007597 -0.100000 -0.078039
v -0.007597 0.100000 -0.078039
v -0.064054 -0.100000 -0.069751
v -0.064054 0.100000 -0.069751
v -0.122928 -0.100000 -0.044889
v -0.122928 0.100000 -0.044889
v -0.161602 -0.100000 -0.020200
v -0.161602 0.100000 -0.020200
v -0.222376 -0.100000 0.023481
v -0.222376 0.100000 0.023481
v -0.229109 -0.100000 0.077348
v -0.229109 0.100000 0.077348
v -0.231354 -0.100000 0.118785
v -0.231354 0.100000 0.118785
v -0.212793 -0.100000 0.204075
v -0.212793 0.100000 0.204075
vt 0.547170 0.000000
vt 0.584906 0.000000
vt 0.566038 0.000000
vt 0.528302 0.000000
vt 0.603774 0.000000
vt 0.509434 0.000000
vt 0.735849 0.000000
vt 0.716981 0.000000
vt 0.698113 0.000000
vt 0.622642 0.000000
vt 0.754717 0.000000
vt 0.679245 0.000000
vt 0.773585 0.000000
vt 1.000000 0.000000
vt 0.490566 0.000000
vt 0.641509 0.000000
vt 0.792453 0.000000
vt 0.981132 0.000000
vt 0.811321 0.000000
vt 0.962264 0.000000
vt 0.660377 0.000000
vt 0.471698 0.000000
vt 0.943396 0.000000
vt 0.830189 0.000000
vt 0.924528 0.000000
vt 0.905660 0.000000
vt 0.452830 0.000000
vt 0.849057 0.000000
vt 0.886792 0.000000
vt 0.000000 0.000000
vt 0.867925 0.000000
vt 0.339623 0.000000
vt 0.433962 0.000000
vt 0.358491 0.000000
vt 0.320755 0.000000
vt 0.377358 0.000000
vt 0.396226 0.000000
vt 0.415094 0.000000
vt 0.301887 0.000000
vt 0.018868 0.000000
vt 0.283019 0.000000
vt 0.264151 0.000000
vt 0.037736 0.000000
vt 0.245283 0.000000
vt 0.226415 0.000000
vt 0.056604 0.000000
vt 0.207547 0.000000
vt 0.075472 0.000000
vt 0.188679 0.000000
vt 0.169811 0.000000
vt 0.094340 0.000000
vt 0.150943 0.000000
vt 0.132075 0.000000
vt 0.113208 0.000000
vt 0.584906 0.000000
vt 0.547170 0.000000
vt 0.566038 0.000000
vt 0.528302 0.000000
vt 0.603774 0.000000
vt 0.735849 0.000000
vt 0.509434 0.000000
vt 0.716981 0.000000
vt 0.698113 0.000000
vt 0.622642 0.000000
vt 0.754717 0.000000
vt 0.679245 0.000000
vt 0.773585 0.000000
vt 1.000000 0.000000
vt 0.490566 0.000000
vt 0.641509 0.000000
vt 0.792453 0.000000
vt 0.981132 0.000000
vt 0.811321 0.000000
vt 0.962264 0.000000
vt 0.660377 0.000000
vt 0.471698 0.000000
vt 0.943396 0.000000
vt 0.830189 0.000000
vt 0.924528 0.000000
vt 0.905660 0.000000
vt 0.452830 0.000000
vt 0.849057 0.000000
vt 0.886792 0.000000
vt 0.000000 0.000000
vt 0.867925 0.000000
vt 0.339623 0.000000
vt 0.433962 0.000000
vt 0.358491 0.000000
vt 0.320755 0.000000
vt 0.377358 0.000000
vt 0.396226 0.000000
vt 0.415094 0.000000
vt 0.301887 0.000000
vt 0.018868 0.000000
vt 0.283019 0.000000
vt 0.264151 0.000000
vt 0.037736 0.000000
vt 0.245283 0.000000
vt 0.226415 0.000000
vt 0.056604 0.000000
vt 0.207547 0.000000
vt 0.075472 0.000000
vt 0.188679 0.000000
vt 0.169811 0.000000
vt 0.094340 0.000000
vt 0.150943 0.000000
vt 0.132075 0.000000
vt 0.113208 0.000000
vt 0.000000 1.000000
vt 0.027778 1.000000
vt 0.027778 0.000000
vt 0.000000 0.000000
vt 0.055556 1.000000
vt 0.055556 0.000000
vt 0.083333 1.000000
vt 0.083333 0.000000
vt 0.111111 1.000000
vt 0.111111 0.000000
vt 0.138889 1.000000
vt 0.138889 0.000000
vt 0.166667 1.000000
vt 0.166667 0.000000
vt 0.194444 1.000000
vt 0.194444 0.000000
vt 0.222222 1.000000
vt 0.222222 0.000000
vt 0.250000 1.000000
vt 0.250000 0.000000
vt 0.277778 1.000000
vt 0.277778 0.000000
vt 0.305556 1.000000
vt 0.305556 0.000000
vt 0.333333 1.000000
vt 0.333333 0.000000
vt 0.361111 1.000000
vt 0.361111 0.000000
vt 0.388889 1.000000
vt 0.388889 0.000000
vt 0.416667 1.000000
vt 0.416667 0.000000
vt 0.444444 1.000000
vt 0.444444 0.000000
vt 0.472222 1.000000
vt 0.472222 0.000000
vt 0.500000 1.000000
vt 0.500000 0.000000
vt 0.527778 1.000000
vt 0.527778 0.000000
vt 0.555556 1.000000
vt 0.555556 0.000000
vt 0.583333 1.000000
vt 0.583333 0.000000
vt 0.611111 1.000000
vt 0.611111 0.000000
vt 0.638889 1.000000
vt 0.638889 0.000000
vt 0.666667 1.000000
vt 0.666667 0.000000
vt 0.694444 1.000000
vt 0.694444 0.000000
vt 0.722222 1.000000
vt 0.722222 0.000000
vt 0.750000 1.000000
vt 0.750000 0.000000
vt 0.777778 1.000000
vt 0.777778 0.000000
vt 0.805556 1.000000
vt 0.805556 0.000000
vt 0.833333 1.000000
vt 0.833333 0.000000
vt 0.861111 1.000000
vt 0.861111 0.000000
vt 0.888889 1.000000
vt 0.888889 0.000000
vt 0.916667 1.000000
vt 0.916667 0.000000
vt 0.944444 1.000000
vt 0.944444 0.000000
vt 0.972222 1.000000
vt 0.972222 0.000000
vt 1.000000 1.000000
vt 1.000000 0.000000
vt 0.000000 1.000000
vt 0.055556 1.000000
vt 0.055556 0.000000
vt 0.000000 0.000000
vt 0.111111 1.000000
vt 0.111111 0.000000
vt 0.166667 1.000000
vt 0.166667 0.000000
vt 0.222222 1.000000
vt 0.222222 0.000000
vt 0.277778 1.000000
vt 0.277778 0.000000
vt 0.333333 1.000000
vt 0.333333 0.000000
vt 0.388889 1.000000
vt 0.388889 0.000000
vt 0.444444 1.000000
vt 0.444444 0.000000
vt 0.500000 1.000000
vt 0.500000 0.000000
vt 0.555556 1.000000
vt 0.555556 0.000000
vt 0.611111 1.000000
vt 0.611111 0.000000
vt 0.666667 1.000000
vt 0.666667 0.000000
vt 0.722222 1.000000
vt 0.722222 0.000000
vt 0.777778 1.000000
vt 0.777778 0.000000
vt 0.833333 1.000000
vt 0.833333 0.000000
vt 0.888889 1.000000
vt 0.888889 0.000000
vt 0.944444 1.000000
vt 0.944444 0.000000
vt 1.000000 1.000000
vt 1.000000 0.000000
vn 0.0000 1.0000 -0.0000
vn 0.0000 -1.0000 -0.0000
vn -0.9261 0.0000 -0.3772
vn -0.8086 0.0000 -0.5883
vn -0.6293 0.0000 -0.7771
vn -0.4920 0.0000 -0.8705
vn -0.4220 0.0000 -0.9066
vn -0.3048 0.0000 -0.9524
vn -0.0098 0.0000 -0.9999
vn 0.4075 0.0000 -0.9132
vn 0.7391 0.0000 -0.6736
vn 0.9352 0.0000 -0.3540
vn 0.9974 0.0000 0.0712
vn 0.8088 0.0000 0.5881
vn 0.4617 0.0000 0.8871
vn 0.3816 0.0000 0.9243
vn 0.5154 0.0000 0.8570
vn 0.6763 0.0000 0.7366
vn 0.8133 0.0000 0.5818
vn 0.8796 0.0000 0.4757
vn 0.7126 0.0000 -0.7015
vn -0.3836 0.0000 -0.9235
vn -0.2898 0.0000 -0.9571
vn -0.1765 0.0000 -0.9843
vn 0.0208 0.0000 -0.9998
vn 0.3095 0.0000 -0.9509
vn 0.6325 0.0000 -0.7745
vn 0.9045 0.0000 -0.4263
vn 0.9999 0.0000 -0.0120
vn 0.9191 0.0000 0.3941
vn 0.6512 0.0000 0.7589
vn 0.3052 0.0000 0.9523
vn -0.0374 0.0000 0.9993
vn -0.4068 0.0000 0.9135
vn -0.7222 0.0000 0.6916
vn -0.9269 0.0000 0.3751
vn -0.9989 0.0000 0.0472
vn -0.9824 0.0000 -0.1870
vn 0.7497 0.0000 -0.6617
vn 0.4678 0.0000 -0.8838
vn 0.0620 0.0000 -0.9980
vn -0.3435 0.0000 -0.9391
vn -0.7162 0.0000 -0.6978
vn -0.9443 0.0000 -0.3289
vn -0.9996 0.0000 0.0264
vn -0.9079 0.0000 0.4190
vn -0.6361 0.0000 0.7716
vn -0.3040 0.0000 0.9527
vn 0.0030 0.0000 1.0000
vn 0.2693 0.0000 0.9630
vn 0.4652 0.0000 0.8852
vn 0.5611 0.0000 0.8278
vn 0.8598 0.0000 0.5107
vn 0.9960 0.0000 0.0891
vn 0.9968 0.0000 -0.0800
vn 0.9225 0.0000 -0.3859
usemtl None
s off
f 30/1/1 32/2/1 31/3/1
f 29/4/1 32/2/1 30/1/1
f 29/4/1 33/5/1 32/2/1
f 28/6/1 40/7/1 29/4/1
f 40/7/1 39/8/1 29/4/1
f 39/8/1 33/5/1 29/4/1
f 39/8/1 38/9/1 33/5/1
f 38/9/1 34/10/1 33/5/1
f 28/6/1 41/11/1 40/7/1
f 37/12/1 34/10/1 38/9/1
f 28/6/1 42/13/1 41/11/1
f 54/14/1 34/10/1 37/12/1
f 27/15/1 42/13/1 28/6/1
f 54/14/1 35/16/1 34/10/1
f 27/15/1 43/17/1 42/13/1
f 53/18/1 35/16/1 54/14/1
f 27/15/1 44/19/1 43/17/1
f 52/20/1 35/16/1 53/18/1
f 52/20/1 36/21/1 35/16/1
f 26/22/1 44/19/1 27/15/1
f 51/23/1 36/21/1 52/20/1
f 26/22/1 45/24/1 44/19/1
f 50/25/1 36/21/1 51/23/1
f 49/26/1 36/21/1 50/25/1
f 25/27/1 45/24/1 26/22/1
f 25/27/1 46/28/1 45/24/1
f 48/29/1 36/21/1 49/26/1
f 48/29/1 1/30/1 36/21/1
f 25/27/1 47/31/1 46/28/1
f 47/31/1 19/32/1 48/29/1
f 19/32/1 1/30/1 48/29/1
f 25/27/1 19/32/1 47/31/1
f 24/33/1 19/32/1 25/27/1
f 24/33/1 20/34/1 19/32/1
f 18/35/1 1/30/1 19/32/1
f 24/33/1 21/36/1 20/34/1
f 24/33/1 22/37/1 21/36/1
f 23/38/1 22/37/1 24/33/1
f 17/39/1 1/30/1 18/35/1
f 17/39/1 2/40/1 1/30/1
f 16/41/1 2/40/1 17/39/1
f 15/42/1 2/40/1 16/41/1
f 15/42/1 3/43/1 2/40/1
f 14/44/1 3/43/1 15/42/1
f 13/45/1 3/43/1 14/44/1
f 13/45/1 4/46/1 3/43/1
f 12/47/1 4/46/1 13/45/1
f 12/47/1 5/48/1 4/46/1
f 11/49/1 5/48/1 12/47/1
f 10/50/1 5/48/1 11/49/1
f 10/50/1 6/51/1 5/48/1
f 9/52/1 6/51/1 10/50/1
f 8/53/1 6/51/1 9/52/1
f 8/53/1 7/54/1 6/51/1
f 86/55/2 84/56/2 85/57/2
f 86/55/2 83/58/2 84/56/2
f 87/59/2 83/58/2 86/55/2
f 94/60/2 82/61/2 83/58/2
f 93/62/2 94/60/2 83/58/2
f 87/59/2 93/62/2 83/58/2
f 92/63/2 93/62/2 87/59/2
f 88/64/2 92/63/2 87/59/2
f 95/65/2 82/61/2 94/60/2
f 88/64/2 91/66/2 92/63/2
f 96/67/2 82/61/2 95/65/2
f 88/64/2 108/68/2 91/66/2
f 96/67/2 81/69/2 82/61/2
f 89/70/2 108/68/2 88/64/2
f 97/71/2 81/69/2 96/67/2
f 89/70/2 107/72/2 108/68/2
f 98/73/2 81/69/2 97/71/2
f 89/70/2 106/74/2 107/72/2
f 90/75/2 106/74/2 89/70/2
f 98/73/2 80/76/2 81/69/2
f 90/75/2 105/77/2 106/74/2
f 99/78/2 80/76/2 98/73/2
f 90/75/2 104/79/2 105/77/2
f 90/75/2 103/80/2 104/79/2
f 99/78/2 79/81/2 80/76/2
f 100/82/2 79/81/2 99/78/2
f 90/75/2 102/83/2 103/80/2
f 55/84/2 102/83/2 90/75/2
f 101/85/2 79/81/2 100/82/2
f 73/86/2 101/85/2 102/83/2
f 55/84/2 73/86/2 102/83/2
f 73/86/2 79/81/2 101/85/2
f 73/86/2 78/87/2 79/81/2
f 74/88/2 78/87/2 73/86/2
f 55/84/2 72/89/2 73/86/2
f 75/90/2 78/87/2 74/88/2
f 76/91/2 78/87/2 75/90/2
f 76/91/2 77/92/2 78/87/2
f 55/84/2 71/93/2 72/89/2
f 56/94/2 71/93/2 55/84/2
f 56/94/2 70/95/2 71/93/2
f 56/94/2 69/96/2 70/95/2
f 57/97/2 69/96/2 56/94/2
f 57/97/2 68/98/2 69/96/2
f 57/97/2 67/99/2 68/98/2
f 58/100/2 67/99/2 57/97/2
f 58/100/2 66/101/2 67/99/2
f 59/102/2 66/101/2 58/100/2
f 59/102/2 65/103/2 66/101/2
f 59/102/2 64/104/2 65/103/2
f 60/105/2 64/104/2 59/102/2
f 60/105/2 63/106/2 64/104/2
f 60/105/2 62/107/2 63/106/2
f 61/108/2 62/107/2 60/105/2
s 1
f 110/109/3 112/110/4 111/111/4 109/112/3
f 112/110/4 114/113/5 113/114/5 111/111/4
f 114/113/5 116/115/6 115/116/6 113/114/5
f 116/115/6 118/117/7 117/118/7 115/116/6
f 118/117/7 120/119/8 119/120/8 117/118/7
f 120/119/8 122/121/9 121/122/9 119/120/8
f 122/121/9 124/123/10 123/124/10 121/122/9
f 124/123/10 126/125/11 125/126/11 123/124/10
f 126/125/11 128/127/12 127/128/12 125/126/11
f 128/127/12 130/129/13 129/130/13 127/128/12
f 130/129/13 132/131/14 131/132/14 129/130/13
f 132/131/14 134/133/15 133/134/15 131/132/14
f 134/133/15 136/135/16 135/136/16 133/134/15
f 136/135/16 138/137/17 137/138/17 135/136/16
f 138/137/17 140/139/18 139/140/18 137/138/17
f 140/139/18 142/141/19 141/142/19 139/140/18
f 142/141/19 144/143/20 143/144/20 141/142/19
f 144/143/20 146/145/21 145/146/21 143/144/20
f 146/145/21 148/147/22 147/148/22 145/146/21
f 148/147/22 150/149/23 149/150/23 147/148/22
f 150/149/23 152/151/24 151/152/24 149/150/23
f 152/151/24 154/153/25 153/154/25 151/152/24
f 154/153/25 156/155/26 155/156/26 153/154/25
f 156/155/26 158/157/27 157/158/27 155/156/26
f 158/157/27 160/159/28 159/160/28 157/158/27
f 160/159/28 162/161/29 161/162/29 159/160/28
f 162/161/29 164/163/30 163/164/30 161/162/29
f 164/163/30 166/165/31 165/166/31 163/164/30
f 166/165/31 168/167/32 167/168/32 165/166/31
f 168/167/32 170/169/33 169/170/33 167/168/32
f 170/169/33 172/171/34 171/172/34 169/170/33
f 172/171/34 174/173/35 173/174/35 171/172/34
f 174/173/35 176/175/36 175/176/36 173/174/35
f 176/175/36 178/177/37 177/178/37 175/176/36
f 178/177/37 180/179/38 179/180/38 177/178/37
f 180/179/38 110/181/3 109/182/3 179/180/38
f 182/183/39 184/184/40 183/185/40 181/186/39
f 184/184/40 186/187/41 185/188/41 183/185/40
f 186/187/41 188/189/42 187/190/42 185/188/41
f 188/189/42 190/191/43 189/192/43 187/190/42
f 190/191/43 192/193/44 191/194/44 189/192/43
f 192/193/44 194/195/45 193/196/45 191/194/44
f 194/195/45 196/197/46 195/198/46 193/196/45
f 196/197/46 198/199/47 197/200/47 195/198/46
f 198/199/47 200/201/48 199/202/48 197/200/47
f 200/201/48 202/203/49 201/204/49 199/202/48
f 202/203/49 204/205/50 203/206/50 201/204/49
f 204/205/50 206/207/51 205/208/51 203/206/50
f 206/207/51 208/209/52 207/210/52 205/208/51
f 208/209/52 210/211/53 209/212/53 207/210/52
f 210/211/53 212/213/54 211/214/54 209/212/53
f 212/213/54 214/215/55 213/216/55 211/214/54
f 214/215/55 216/217/56 215/218/56 213/216/55
f 216/217/56 182/219/39 181/220/39 215/218/56
