# Blender v2.90.1 OBJ File: 'Things.blend'
# www.blender.org
mtllib Tank.mtl
o Tank_Cube.001
v -0.400283 -0.500000 -0.347799
v 0.429381 -0.333333 0.500000
v -0.400283 -0.500000 0.347799
v 0.429381 -0.166667 0.500000
v 0.400283 -0.500000 -0.347799
v -0.429381 -0.333333 0.500000
v 0.400283 -0.500000 0.347799
v -0.429381 -0.166667 0.500000
v -0.400283 0.000000 -0.347799
v -0.400283 0.000000 0.347799
v 0.400283 0.000000 0.347799
v 0.400283 0.000000 -0.347799
v -0.281159 0.000000 -0.232710
v -0.025098 0.270579 -0.056115
v 0.025098 0.270579 -0.056115
v 0.281159 0.000000 -0.232710
v 0.429381 -0.166667 -0.500000
v 0.429381 -0.333333 -0.500000
v -0.429381 -0.333333 -0.500000
v -0.429381 -0.166667 -0.500000
v -0.076937 0.090413 0.156840
v 0.076937 0.090413 0.156840
v -0.025098 0.270579 -0.020496
v 0.025098 0.270579 -0.020496
v -0.154084 0.231069 -0.135199
v 0.154084 0.231069 -0.135199
v -0.076937 0.169989 0.132903
v 0.076937 0.169989 0.132903
v -0.025098 0.500000 -0.056115
v 0.025098 0.500000 -0.056115
v -0.025098 0.500000 -0.020496
v 0.025098 0.500000 -0.020496
v -0.281159 0.000000 0.185832
v 0.281159 0.000000 0.185832
v -0.154084 0.231069 0.114148
v 0.154084 0.231069 0.114148
v -0.076937 0.090413 0.464576
v 0.076937 0.090413 0.464576
v -0.076937 0.169989 0.464576
v 0.076937 0.169989 0.464576
v -0.122061 0.067077 0.464576
v 0.122061 0.067077 0.464576
v -0.080797 0.193326 0.464576
v 0.080797 0.193326 0.464576
v -0.122061 0.067077 0.748875
v 0.122061 0.067077 0.748875
v -0.080797 0.193326 0.748875
v 0.080797 0.193326 0.748875
v 0.192490 -0.500000 0.347799
v -0.192490 -0.500000 0.347799
v -0.192490 -0.500000 -0.347799
v 0.192490 -0.500000 -0.347799
v -0.192490 0.000000 -0.347799
v 0.192490 0.000000 -0.347799
v -0.192490 0.000000 0.347799
v 0.192490 0.000000 0.347799
v -0.180601 -0.333333 0.500000
v 0.180601 -0.333333 0.500000
v -0.180601 -0.166667 0.500000
v 0.180601 -0.166667 0.500000
v 0.180601 -0.333333 -0.500000
v -0.180601 -0.333333 -0.500000
v 0.180601 -0.166667 -0.500000
v -0.180601 -0.166667 -0.500000
v 0.192490 -0.428568 -0.290301
v -0.192490 0.000000 0.275584
v 0.192490 0.000000 0.275584
v 0.192490 -0.428568 0.324393
v -0.192490 -0.428568 0.324393
v -0.192490 -0.428568 -0.290301
v -0.500000 -0.375148 -0.347799
v -0.500000 -0.375148 0.347799
v -0.500000 -0.124853 -0.347799
v -0.500000 -0.124853 0.347799
v 0.500000 -0.124853 -0.347799
v 0.500000 -0.124853 0.347799
v 0.500000 -0.375147 -0.347799
v 0.500000 -0.375147 0.347799
vt 0.468787 0.750000
vt 0.458333 0.750000
vt 0.500000 0.750000
vt 0.458333 0.000000
vt 0.468787 0.000000
vt 0.500000 0.000000
vt 0.468787 0.250000
vt 0.500000 0.250000
vt 0.375000 0.416667
vt 0.375000 0.500000
vt 0.416667 0.500000
vt 0.416667 0.416667
vt 0.458333 0.916667
vt 0.458333 1.000000
vt 0.500000 1.000000
vt 0.500000 0.916667
vt 0.468787 0.500000
vt 0.500000 0.500000
vt 0.458333 0.500000
vt 0.458333 0.416667
vt 0.500000 0.416667
vt 0.500000 0.000000
vt 0.500000 0.250000
vt 0.625000 0.250000
vt 0.625000 0.000000
vt 0.500000 0.500000
vt 0.500000 0.750000
vt 0.625000 0.750000
vt 0.625000 0.500000
vt 0.625000 0.410734
vt 0.625000 0.410734
vt 0.625000 0.401484
vt 0.625000 0.401484
vt 0.375000 0.916667
vt 0.416667 0.916667
vt 0.375000 1.000000
vt 0.416667 1.000000
vt 0.577613 0.327318
vt 0.577613 0.327318
vt 0.577613 0.422682
vt 0.577613 0.422682
vt 0.625000 0.339266
vt 0.625000 0.348516
vt 0.625000 0.339266
vt 0.625000 0.348516
vt 0.547387 0.327318
vt 0.547387 0.422682
vt 0.547387 0.327318
vt 0.547387 0.327318
vt 0.577613 0.327318
vt 0.547387 0.422682
vt 0.577613 0.422682
vt 0.577613 0.422682
vt 0.547387 0.422682
vt 0.547387 0.422682
vt 0.577613 0.327318
vt 0.547387 0.327318
vt 0.416667 0.333333
vt 0.375000 0.333333
vt 0.500000 0.333333
vt 0.458333 0.333333
vt 0.500000 0.333333
vt 0.500000 0.416667
vt 0.416667 0.750000
vt 0.416667 0.833333
vt 0.458333 0.833333
vt 0.500000 0.250000
vt 0.500000 0.500000
vt 0.375000 0.750000
vt 0.375000 0.833333
vt 0.416667 0.250000
vt 0.458333 0.250000
vt 0.375000 0.868448
vt 0.392858 0.756191
vt 0.500000 0.833333
vt 0.375000 0.250000
vt 0.406213 0.250000
vt 0.392858 0.780094
vt 0.375000 0.833333
vt 0.375000 0.463822
vt 0.375000 0.333333
vt 0.000000 0.000000
vt 0.000000 0.000000
vt 0.375000 0.798892
vt 0.375000 0.393894
vt 0.406213 0.000000
vt 0.375000 0.000000
vt 0.416667 0.000000
vt 0.406213 0.750000
vt 0.406213 0.500000
vn 0.6893 0.5505 -0.4710
vn -0.6893 0.5505 -0.4710
vn -0.7814 0.6241 0.0000
vn 0.0000 -0.6743 0.7384
vn 0.0000 0.6743 -0.7384
vn 0.6893 0.5505 0.4710
vn 0.0000 0.6743 0.7384
vn 0.7814 0.6241 -0.0000
vn -0.8762 0.4819 0.0000
vn 0.8762 0.4819 0.0000
vn 0.0000 1.0000 0.0000
vn 1.0000 0.0000 -0.0000
vn 0.0000 0.0000 1.0000
vn 0.9970 0.0000 0.0779
vn 0.0000 -0.6743 -0.7384
vn 0.0000 0.0000 -1.0000
vn -0.2929 0.9561 0.0000
vn 0.2929 0.9561 0.0000
vn 0.0000 0.9595 0.2816
vn -1.0000 0.0000 -0.0000
vn 0.0043 0.2926 0.9562
vn -0.0043 0.2926 0.9562
vn 0.0000 0.3053 0.9522
vn 0.0000 0.2935 0.9560
vn 0.9505 0.3107 0.0000
vn 0.0000 -1.0000 0.0000
vn -0.9505 0.3107 0.0000
vn 0.9970 0.0000 -0.0779
vn 0.0000 0.8946 -0.4469
vn 0.0000 0.3888 -0.9213
vn 0.0000 -0.1330 -0.9911
vn -0.9970 0.0000 0.0779
vn -0.6893 -0.5505 0.4710
vn -0.9970 0.0000 -0.0779
vn -0.0000 0.1132 0.9936
vn -0.7814 -0.6241 0.0000
vn -0.6893 -0.5505 -0.4710
vn -0.9071 0.0000 0.4209
vn -0.9071 0.0000 -0.4209
vn -0.6893 0.5505 0.4710
vn 0.9071 0.0000 -0.4209
vn 0.9071 0.0000 0.4209
vn 0.7814 -0.6241 0.0000
vn 0.6893 -0.5505 -0.4710
vn 0.6893 -0.5505 0.4710
usemtl Material.002
s off
f 75/1/1 17/2/1 12/3/1
f 20/4/2 73/5/2 9/6/2
f 74/7/3 10/8/3 9/6/3 73/5/3
f 49/9/4 7/10/4 2/11/4 58/12/4
f 64/13/5 20/14/5 9/15/5 53/16/5
f 76/17/6 11/18/6 4/19/6
f 60/20/7 4/19/7 11/18/7 56/21/7
f 75/1/8 12/3/8 11/18/8 76/17/8
f 13/22/9 33/23/9 35/24/9 25/25/9
f 34/26/10 16/27/10 26/28/10 36/29/10
f 10/8/11 33/23/11 13/22/11 9/6/11
f 15/30/12 30/31/12 32/32/12 24/33/12
f 12/3/11 16/27/11 34/26/11 11/18/11
f 58/12/13 2/11/13 4/19/13 60/20/13
f 64/13/14 53/16/14 51/34/14 62/35/14
f 51/34/15 1/36/15 19/37/15 62/35/15
f 62/35/16 19/37/16 20/14/16 64/13/16
f 27/38/11 39/39/11 40/40/11 28/41/11
f 14/42/17 25/25/17 35/24/17 23/43/17
f 24/33/18 36/29/18 26/28/18 15/30/18
f 23/43/19 35/24/19 36/29/19 24/33/19
f 14/42/16 29/44/16 30/31/16 15/30/16
f 23/43/20 31/45/20 29/44/20 14/42/20
f 27/38/21 35/24/21 33/23/21 21/46/21
f 22/47/22 34/26/22 36/29/22 28/41/22
f 21/46/23 33/23/23 34/26/23 22/47/23
f 37/48/16 41/49/16 43/50/16 39/39/16
f 21/46/20 37/48/20 39/39/20 27/38/20
f 28/41/12 40/40/12 38/51/12 22/47/12
f 28/41/24 36/29/24 35/24/24 27/38/24
f 44/52/25 48/53/25 46/54/25 42/55/25
f 40/40/16 44/52/16 42/55/16 38/51/16
f 22/47/26 38/51/26 37/48/26 21/46/26
f 47/56/13 45/57/13 46/54/13 48/53/13
f 41/49/27 45/57/27 47/56/27 43/50/27
f 57/58/28 50/59/28 55/60/28 59/61/28
f 42/55/26 46/54/26 45/57/26 41/49/26
f 39/39/16 43/50/16 44/52/16 40/40/16
f 38/51/16 42/55/16 41/49/16 37/48/16
f 24/33/13 32/32/13 31/45/13 23/43/13
f 32/32/11 30/31/11 29/44/11 31/45/11
f 15/30/29 26/28/29 25/25/29 14/42/29
f 26/28/30 16/27/30 13/22/30 25/25/30
f 33/23/11 10/8/11 55/60/11 66/62/11
f 67/63/11 34/26/11 33/23/11 66/62/11
f 18/64/16 61/65/16 63/66/16 17/2/16
f 53/67/11 13/22/11 16/27/11 54/68/11
f 5/69/15 52/70/15 61/65/15 18/64/15
f 6/71/13 57/58/13 59/61/13 8/72/13
f 70/73/31 53/67/31 54/68/31 65/74/31
f 43/50/11 47/56/11 48/53/11 44/52/11
f 8/72/7 59/61/7 55/60/7 10/8/7
f 17/2/5 63/66/5 54/75/5 12/3/5
f 3/76/4 50/59/4 57/58/4 6/71/4
f 12/3/11 54/68/11 16/27/11
f 56/21/11 11/18/11 34/26/11 67/63/11
f 53/67/11 9/6/11 13/22/11
f 52/70/20 65/74/20 54/68/20
f 63/66/32 61/65/32 52/70/32 54/75/32
f 6/71/33 72/77/33 3/76/33
f 53/16/12 70/78/12 51/34/12
f 58/12/34 60/20/34 56/21/34 49/9/34
f 50/59/26 3/76/26 1/36/26 51/34/26
f 65/79/26 68/80/26 69/81/26 70/73/26
f 52/70/26 5/69/26 7/10/26 49/9/26
f 66/62/35 69/82/35 68/83/35 67/63/35
f 65/84/20 52/70/20 49/9/20 68/83/20
f 68/83/20 49/9/20 56/21/20 67/63/20
f 66/62/12 55/60/12 50/59/12 69/85/12
f 69/85/12 50/59/12 51/34/12 70/78/12
f 3/76/36 72/77/36 71/86/36 1/87/36
f 1/87/37 71/86/37 19/88/37
f 8/72/38 74/7/38 72/77/38 6/71/38
f 72/77/20 74/7/20 73/5/20 71/86/20
f 19/88/39 71/86/39 73/5/39 20/4/39
f 10/8/40 74/7/40 8/72/40
f 77/89/12 75/1/12 76/17/12 78/90/12
f 77/89/41 18/64/41 17/2/41 75/1/41
f 2/11/42 78/90/42 76/17/42 4/19/42
f 5/69/43 77/89/43 78/90/43 7/10/43
f 5/69/44 18/64/44 77/89/44
f 7/10/45 78/90/45 2/11/45
