# Blender v2.91.2 OBJ File: 'all models.blend'
# www.blender.org
o Cube.001
v -4.000000 -4.000000 -0.400000
v -4.000000 -4.000000 0.000000
v -4.000000 4.000000 -0.400000
v 4.000000 -4.000000 -0.400000
v 4.000000 4.000000 -0.400000
v 0.000000 -4.000000 0.000000
v 2.837106 -2.230947 3.621217
v 3.456719 1.896148 3.294230
v 3.456719 1.405868 3.294230
v 2.837106 -2.481923 3.621217
v 0.000000 -3.213570 0.000000
v 0.000000 3.502799 1.114983
v 0.000000 -3.696668 1.114983
v 0.000000 -3.213570 0.617782
v 0.242967 -2.812987 0.000000
v 0.242967 -3.213570 0.000000
v 0.242967 -2.812987 0.617782
v 0.242967 -3.213570 0.617782
v 0.000000 3.502799 1.174699
v 0.000000 -3.696668 1.174699
v 3.879362 1.405868 2.148670
v 3.879362 1.896148 2.148670
v 4.000000 -4.000000 1.821683
v 3.110880 -2.481923 3.621217
v 3.110880 -2.230947 3.621217
v 4.000000 4.000000 1.821683
v 3.753338 1.585520 4.729033
v 3.582743 1.585520 4.729033
v 3.582743 1.716496 4.729033
v 3.753338 1.716496 4.729033
v 3.879362 1.405868 4.729033
v 3.456719 1.405868 4.729033
v 3.456719 1.896148 4.729033
v 3.879362 1.896148 4.729033
v 3.725064 1.481773 4.729033
v 3.611016 1.481773 4.729033
v 3.611016 1.820243 4.729033
v 3.725064 1.820243 4.729033
v 3.725064 1.481773 4.963568
v 3.611016 1.481773 4.963568
v 3.611016 1.820243 4.963568
v 3.725064 1.820243 4.963568
v 3.753338 1.585520 4.963568
v 3.582743 1.585520 4.963568
v 3.582743 1.716496 4.963568
v 3.753338 1.716496 4.963568
v 0.663920 2.672161 3.621217
v 3.336080 2.672161 3.621217
v 3.336080 -2.672161 3.621217
v 0.663920 -2.672161 3.621217
v 0.663920 2.672161 3.954094
v 3.336080 2.672161 3.954094
v 3.336080 -2.672161 3.954094
v 0.663920 -2.672161 3.954094
v 0.740002 2.596079 3.954094
v 3.259998 2.596079 3.954094
v 3.259998 -2.596079 3.954094
v 0.740002 -2.596079 3.954094
v 0.740002 2.596079 3.621217
v 3.259998 2.596079 3.621217
v 3.259998 -2.596079 3.621217
v 0.740002 -2.596079 3.621217
v 2.837106 -2.481923 3.529123
v 3.110880 -2.481923 3.529123
v 3.110880 -2.230947 3.529123
v 2.837106 -2.230947 3.529123
v -4.000000 4.000000 0.000000
v 0.000000 4.000000 0.000000
v 0.000000 -2.812987 0.000000
v 0.000000 -4.000000 1.821683
v 0.000000 4.000000 1.821683
v 0.000000 -2.812987 0.617782
v -3.744688 -3.696668 1.174699
v -3.744688 3.502799 1.174699
v -3.744688 -3.696668 1.114983
v -3.744688 3.502799 1.114983
v -3.300601 2.063169 0.000000
v -3.101714 2.063169 0.000000
v -3.300601 -1.238241 0.000000
v -3.101714 -1.238241 0.000000
v -3.101714 -1.063780 0.000000
v -3.300601 -1.063780 0.000000
v -3.101714 1.877597 0.000000
v -3.300601 1.877597 0.000000
v -3.101714 0.358190 0.000000
v -3.300601 0.358190 0.000000
v -3.101714 0.171737 0.000000
v -3.300601 0.171737 0.000000
v -3.300601 1.877597 0.255039
v -3.300601 2.063169 0.255039
v -3.183313 2.063169 0.255039
v -3.183313 -1.063780 0.255039
v -3.183313 -1.238241 0.255039
v -3.300601 -1.238241 0.255039
v -3.300601 -1.063780 0.255039
v -3.183313 1.877597 0.255039
v -3.300601 0.171737 0.255039
v -3.300601 0.358190 0.255039
v -3.183313 0.358190 0.255039
v -3.183313 0.171737 0.255039
v -3.300601 1.877597 0.611697
v -3.300601 2.063169 0.611697
v -3.101714 2.063169 0.611697
v -3.101714 -1.063780 0.611697
v -3.101714 -1.238241 0.611697
v -3.300601 -1.238241 0.611697
v -3.300601 -1.063780 0.611697
v -3.101714 1.877597 0.611697
v -3.300601 0.171737 0.611697
v -3.300601 0.358190 0.611697
v -3.101714 0.358190 0.611697
v -3.101714 0.171737 0.611697
v -3.300601 1.877597 1.211581
v -3.300601 2.063169 1.211581
v -3.101714 2.063169 1.211581
v -3.101714 -1.063780 1.211581
v -3.101714 -1.238241 1.211581
v -3.300601 -1.238241 1.211581
v -3.300601 -1.063780 1.211581
v -3.101714 1.877597 1.211581
v -3.300601 0.171737 1.211581
v -3.300601 0.358190 1.211581
v -3.101714 0.358190 1.211581
v -3.101714 0.171737 1.211581
vt 0.861854 0.560099
vt 0.910822 0.562548
vt 0.861854 0.562548
vt 0.970556 0.528671
vt 0.643744 0.561352
vt 0.316931 0.528671
vt 0.970558 0.529871
vt 0.643744 0.562552
vt 0.970558 0.562552
vt 0.023282 0.946429
vt 0.261686 0.993301
vt 0.023282 0.993301
vt 0.672493 1.000000
vt 0.838931 0.888426
vt 0.872054 1.000000
vt 0.316931 0.529871
vt 0.970556 0.561352
vt 0.525873 0.882234
vt 0.654608 0.906694
vt 0.525873 0.906694
vt 0.872054 1.000000
vt 0.705616 0.888426
vt 0.672493 1.000000
vt 0.981029 0.980713
vt 0.885334 0.647838
vt 0.981029 0.581592
vt 0.547020 0.939122
vt 0.543771 0.929464
vt 0.547020 0.929464
vt 0.023282 0.922554
vt 0.910822 0.611516
vt 0.516600 0.929464
vt 0.525171 0.951258
vt 0.516600 0.951258
vt 0.303303 0.726543
vt 0.755115 0.730152
vt 0.754788 0.771121
vt 0.780389 0.725867
vt 0.837244 0.723766
vt 0.782038 0.770530
vt 0.539303 0.929464
vt 0.525171 0.929464
vt 0.547874 0.951258
vt 0.547874 0.929464
vt 0.539303 0.920893
vt 0.525171 0.920893
vt 0.525171 0.959829
vt 0.539303 0.951258
vt 0.539303 0.959829
vt 0.369959 0.928219
vt 0.414260 0.927629
vt 0.414262 0.928403
vt 0.458561 0.928220
vt 0.458559 0.927447
vt 0.316931 0.711389
vt 0.643744 0.711389
vt 0.861854 0.625115
vt 0.861854 0.611516
vt 0.816463 0.804764
vt 0.840697 0.859900
vt 0.816968 0.811060
vt 0.316931 0.710190
vt 0.963640 0.851291
vt 0.885335 0.647838
vt 0.981029 0.581593
vt 0.902722 0.851291
vt 0.885334 0.914467
vt 0.963640 0.875752
vt 0.902722 0.875752
vt 0.981029 0.980714
vt 0.670965 0.889615
vt 0.679476 0.896150
vt 0.670965 0.896150
vt 0.583025 0.927780
vt 0.654608 0.952240
vt 0.583025 0.952240
vt 0.654608 0.973326
vt 0.525873 0.973326
vt 0.654608 0.927780
vt 0.672376 0.901326
vt 0.685764 0.905113
vt 0.664678 0.905113
vt 0.672376 0.884439
vt 0.685764 0.880652
vt 0.678066 0.884439
vt 0.664678 0.880652
vt 0.530226 0.925694
vt 0.537925 0.934893
vt 0.527670 0.932145
vt 0.679476 0.889615
vt 0.527785 0.940964
vt 0.537494 0.946554
vt 0.527743 0.947691
vt 0.678066 0.901326
vt 0.540875 0.942555
vt 0.542482 0.932077
vt 0.541464 0.942728
vt 0.538421 0.949752
vt 0.529069 0.931015
vt 0.528298 0.944764
vt 0.542482 0.951703
vt 0.529905 0.953912
vt 0.529905 0.953912
vt 0.542747 0.952644
vt 0.532616 0.958557
vt 0.527286 0.938997
vt 0.536749 0.938167
vt 0.838931 0.888426
vt 0.705616 0.871818
vt 0.837651 0.932800
vt 0.711928 0.949408
vt 0.711928 0.932800
vt 0.885334 0.914467
vt 0.868727 0.647838
vt 0.803068 0.928002
vt 0.736237 0.932286
vt 0.736237 0.928002
vt 0.780359 0.970244
vt 0.779604 0.942256
vt 0.780451 0.943140
vt 0.832213 0.943140
vt 0.832968 0.971128
vt 0.832122 0.970244
vt 0.779508 0.971128
vt 0.833064 0.942256
vt 0.736237 0.927813
vt 0.803068 0.923528
vt 0.803068 0.927813
vt 0.704658 0.971510
vt 0.830381 0.954903
vt 0.830381 0.971510
vt 0.705616 0.888426
vt 0.838931 0.871818
vt 0.868727 0.647838
vt 0.323669 0.897161
vt 0.461370 0.885097
vt 0.461370 0.956985
vt 0.316509 0.897161
vt 0.313253 0.885097
vt 0.316509 0.889351
vt 0.323669 0.889351
vt 0.313253 0.956985
vt 0.543771 0.926215
vt 0.534917 0.929464
vt 0.534917 0.926215
vt 0.534917 0.939122
vt 0.543771 0.939122
vt 0.531669 0.929464
vt 0.531668 0.939122
vt 0.534917 0.942371
vt 0.543771 0.942371
vt 0.261687 0.516493
vt 0.023282 0.516493
vt 0.338329 0.810906
vt 0.300628 0.859900
vt 0.338823 0.804848
vt 0.325657 0.927629
vt 0.325659 0.928403
vt 0.489724 0.878293
vt 0.284344 0.985118
vt 0.284344 0.878293
vt 0.489724 0.878293
vt 0.284344 0.985118
vt 0.284344 0.878293
vt 0.853180 0.612911
vt 0.815074 0.636238
vt 0.814522 0.616940
vt 0.853178 0.613040
vt 0.815071 0.636357
vt 0.814521 0.617062
vt 0.851530 0.692807
vt 0.815966 0.667831
vt 0.857271 0.666236
vt 0.761122 0.613924
vt 0.814507 0.616966
vt 0.761972 0.589048
vt 0.813550 0.590509
vt 0.761122 0.613798
vt 0.813513 0.588805
vt 0.850908 0.585701
vt 0.857355 0.664554
vt 0.815085 0.636303
vt 0.857994 0.640039
vt 0.853170 0.612855
vt 0.850954 0.587269
vt 0.857262 0.666494
vt 0.857932 0.640269
vt 0.857939 0.640137
vt 0.851526 0.693066
vt 0.815966 0.668099
vt 0.851537 0.691121
vt 0.815933 0.666023
vt 0.813517 0.588815
vt 0.850913 0.585701
vt 0.761090 0.613773
vt 0.677792 0.587678
vt 0.759338 0.640400
vt 0.677441 0.612186
vt 0.677831 0.586118
vt 0.762028 0.587511
vt 0.761652 0.692296
vt 0.759263 0.665159
vt 0.762030 0.587514
vt 0.761658 0.690718
vt 0.759226 0.663607
vt 0.759274 0.640335
vt 0.761650 0.692545
vt 0.759263 0.665406
vt 0.759341 0.640529
vt 0.649503 0.611768
vt 0.649862 0.587269
vt 0.649503 0.611768
vt 0.649893 0.585701
vt 0.677831 0.586119
vt 0.649501 0.611893
vt 0.649893 0.585701
vt 0.677440 0.612311
vt 0.677746 0.667152
vt 0.677738 0.665554
vt 0.677331 0.640691
vt 0.677745 0.667403
vt 0.677317 0.640699
vt 0.677433 0.612178
vt 0.677314 0.640824
vt 0.910822 0.560100
vt 0.654608 0.882234
vt 0.369957 0.927446
vt 0.910822 0.625115
vt 0.643744 0.710190
vt 0.542747 0.932779
vt 0.838931 0.871818
vt 0.837651 0.949408
vt 0.868727 0.914467
vt 0.803068 0.932286
vt 0.736237 0.923528
vt 0.704658 0.954903
vt 0.705616 0.871818
vt 0.868727 0.914467
vt 0.489724 0.985118
vt 0.489724 0.985118
vt 0.815196 0.686705
vt 0.815194 0.686968
vt 0.815175 0.684944
vt 0.678545 0.694706
vt 0.678532 0.693114
vt 0.678545 0.694956
vn -1.0000 0.0000 0.0000
vn 0.0000 1.0000 0.0000
vn 0.0000 -1.0000 0.0000
vn 0.0000 0.0000 1.0000
vn 0.0000 0.8047 0.5937
vn 1.0000 0.0000 0.0000
vn 0.0000 -0.8047 0.5937
vn -0.9382 0.0000 0.3461
vn 0.0000 0.0000 -1.0000
vn 0.9382 0.0000 0.3461
vn 0.9648 -0.2629 0.0000
vn -0.9648 0.2629 0.0000
vn 0.9648 0.2629 0.0000
vn -0.9648 -0.2629 0.0000
vn 0.9524 0.0000 0.3047
vn 0.9748 0.0000 -0.2230
s off
f 2/1/1 3/2/1 1/3/1
f 3/4/2 68/5/2 5/6/2
f 1/7/3 6/8/3 2/9/3
f 11/10/4 2/11/4 6/12/4
f 71/13/5 48/14/5 26/15/5
f 4/16/3 6/8/3 1/7/3
f 3/4/2 67/17/2 68/5/2
f 22/18/6 31/19/6 21/20/6
f 23/21/7 50/22/7 70/23/7
f 70/24/8 47/25/8 71/26/8
f 24/27/2 63/28/2 10/29/2
f 69/30/4 2/11/4 11/10/4
f 5/31/9 1/3/9 3/2/9
f 69/32/3 17/33/3 72/34/3
f 68/35/1 69/36/1 72/37/1
f 11/38/1 6/39/1 14/40/1
f 16/41/1 17/33/1 15/42/1
f 14/43/2 16/41/2 11/44/2
f 11/45/4 15/42/4 69/46/4
f 72/47/9 18/48/9 14/49/9
f 75/50/1 74/51/1 76/52/1
f 12/53/2 74/51/2 19/54/2
f 6/8/3 23/55/3 70/56/3
f 5/31/6 23/57/6 4/58/6
f 13/59/1 70/60/1 20/61/1
f 68/5/2 26/62/2 5/6/2
f 21/63/10 49/64/10 23/65/10
f 9/66/10 48/67/10 49/64/10
f 22/68/10 48/67/10 8/69/10
f 21/63/10 26/70/10 22/68/10
f 30/71/4 28/72/4 27/73/4
f 9/74/1 33/75/1 8/76/1
f 8/76/2 34/77/2 22/78/2
f 9/74/3 31/19/3 32/79/3
f 35/80/4 32/81/4 31/82/4
f 27/73/4 35/80/4 31/82/4
f 38/83/4 33/84/4 37/85/4
f 30/71/4 31/82/4 34/86/4
f 27/87/11 39/88/11 35/89/11
f 29/90/4 32/81/4 28/72/4
f 29/91/12 41/92/12 37/93/12
f 36/94/4 28/72/4 32/81/4
f 29/90/4 37/85/4 33/84/4
f 38/83/4 30/71/4 34/86/4
f 44/95/4 39/88/4 43/96/4
f 45/97/4 42/98/4 41/92/4
f 30/99/3 45/97/3 29/91/3
f 28/100/2 43/101/2 27/102/2
f 38/103/13 46/104/13 30/105/13
f 36/106/14 44/95/14 28/100/14
f 37/93/2 42/98/2 38/103/2
f 35/89/3 40/107/3 36/106/3
f 49/108/3 54/109/3 50/22/3
f 60/110/3 55/111/3 59/112/3
f 50/113/1 51/114/1 47/25/1
f 61/115/1 56/116/1 60/117/1
f 56/118/4 51/119/4 55/120/4
f 58/121/4 53/122/4 57/123/4
f 56/118/4 53/122/4 52/124/4
f 58/121/4 51/119/4 54/125/4
f 59/126/6 58/127/6 62/128/6
f 62/129/2 57/130/2 61/131/2
f 47/132/2 52/133/2 48/14/2
f 48/67/6 53/134/6 49/64/6
f 7/135/4 60/136/4 59/137/4
f 10/138/4 61/139/4 24/140/4
f 25/141/4 61/139/4 60/136/4
f 7/135/4 62/142/4 10/138/4
f 10/143/6 66/144/6 7/145/6
f 65/146/4 63/28/4 64/147/4
f 7/148/3 65/146/3 25/149/3
f 25/150/1 64/147/1 24/151/1
f 67/152/4 69/30/4 68/153/4
f 19/154/1 70/60/1 71/155/1
f 13/59/1 14/40/1 6/39/1
f 12/156/1 72/37/1 13/59/1
f 12/156/1 71/155/1 68/35/1
f 13/59/1 72/37/1 14/40/1
f 20/157/3 75/50/3 13/158/3
f 13/159/9 76/160/9 12/161/9
f 19/162/4 73/163/4 20/164/4
f 84/165/3 96/166/3 89/167/3
f 88/168/3 100/169/3 97/170/3
f 77/171/2 91/172/2 78/173/2
f 100/169/3 109/174/3 97/170/3
f 94/175/1 107/176/1 95/177/1
f 96/166/3 101/178/3 89/167/3
f 88/168/1 98/179/1 86/180/1
f 81/181/15 93/182/15 80/183/15
f 79/184/1 95/177/1 82/185/1
f 85/186/15 100/169/15 87/187/15
f 78/173/15 96/166/15 83/188/15
f 86/189/2 99/190/2 85/186/2
f 79/184/3 93/182/3 94/175/3
f 82/191/2 92/192/2 81/181/2
f 84/165/1 90/193/1 77/194/1
f 106/195/1 119/196/1 107/176/1
f 108/197/3 113/198/3 101/178/3
f 101/178/1 114/199/1 102/200/1
f 91/172/2 102/201/2 103/202/2
f 97/170/1 110/203/1 98/179/1
f 92/192/2 107/204/2 104/205/2
f 92/192/16 105/206/16 93/182/16
f 99/190/2 110/207/2 111/208/2
f 91/172/16 108/197/16 96/166/16
f 93/182/3 106/195/3 94/175/3
f 99/190/16 112/209/16 100/169/16
f 89/167/1 102/200/1 90/193/1
f 119/196/4 117/210/4 116/211/4
f 114/199/4 120/212/4 115/213/4
f 122/214/4 124/215/4 123/216/4
f 112/209/3 121/217/3 109/174/3
f 102/201/2 115/218/2 103/202/2
f 109/174/1 122/214/1 110/203/1
f 107/204/2 116/219/2 104/205/2
f 104/205/6 117/220/6 105/206/6
f 110/207/2 123/221/2 111/208/2
f 103/202/6 120/222/6 108/197/6
f 105/206/3 118/223/3 106/195/3
f 111/208/6 124/224/6 112/209/6
f 2/1/1 67/225/1 3/2/1
f 71/13/5 47/132/5 48/14/5
f 22/18/6 34/226/6 31/19/6
f 23/21/7 49/108/7 50/22/7
f 70/24/8 50/113/8 47/25/8
f 24/27/2 64/147/2 63/28/2
f 5/31/9 4/58/9 1/3/9
f 69/32/3 15/42/3 17/33/3
f 16/41/1 18/48/1 17/33/1
f 14/43/2 18/48/2 16/41/2
f 11/45/4 16/41/4 15/42/4
f 72/47/9 17/33/9 18/48/9
f 75/50/1 73/227/1 74/51/1
f 12/53/2 76/52/2 74/51/2
f 6/8/3 4/16/3 23/55/3
f 5/31/6 26/228/6 23/57/6
f 13/59/1 6/39/1 70/60/1
f 68/5/2 71/229/2 26/62/2
f 21/63/10 9/66/10 49/64/10
f 9/66/10 8/69/10 48/67/10
f 22/68/10 26/70/10 48/67/10
f 21/63/10 23/65/10 26/70/10
f 30/71/4 29/90/4 28/72/4
f 9/74/1 32/79/1 33/75/1
f 8/76/2 33/75/2 34/77/2
f 9/74/3 21/20/3 31/19/3
f 35/80/4 36/94/4 32/81/4
f 38/83/4 34/86/4 33/84/4
f 30/71/4 27/73/4 31/82/4
f 27/87/11 43/96/11 39/88/11
f 29/90/4 33/84/4 32/81/4
f 29/91/12 45/97/12 41/92/12
f 44/95/4 40/107/4 39/88/4
f 45/97/4 46/104/4 42/98/4
f 30/99/3 46/230/3 45/97/3
f 28/100/2 44/95/2 43/101/2
f 38/103/13 42/98/13 46/104/13
f 36/106/14 40/107/14 44/95/14
f 37/93/2 41/92/2 42/98/2
f 35/89/3 39/88/3 40/107/3
f 49/108/3 53/231/3 54/109/3
f 60/110/3 56/232/3 55/111/3
f 50/113/1 54/233/1 51/114/1
f 61/115/1 57/234/1 56/116/1
f 56/118/4 52/124/4 51/119/4
f 58/121/4 54/125/4 53/122/4
f 56/118/4 57/123/4 53/122/4
f 58/121/4 55/120/4 51/119/4
f 59/126/6 55/235/6 58/127/6
f 62/129/2 58/236/2 57/130/2
f 47/132/2 51/237/2 52/133/2
f 48/67/6 52/238/6 53/134/6
f 7/135/4 25/141/4 60/136/4
f 10/138/4 62/142/4 61/139/4
f 25/141/4 24/140/4 61/139/4
f 7/135/4 59/137/4 62/142/4
f 10/143/6 63/28/6 66/144/6
f 65/146/4 66/144/4 63/28/4
f 7/148/3 66/144/3 65/146/3
f 25/150/1 65/146/1 64/147/1
f 67/152/4 2/11/4 69/30/4
f 19/154/1 20/61/1 70/60/1
f 12/156/1 68/35/1 72/37/1
f 12/156/1 19/154/1 71/155/1
f 20/157/3 73/227/3 75/50/3
f 13/159/9 75/239/9 76/160/9
f 19/162/4 74/240/4 73/163/4
f 84/165/3 83/188/3 96/166/3
f 88/168/3 87/187/3 100/169/3
f 77/171/2 90/241/2 91/172/2
f 100/169/3 112/209/3 109/174/3
f 94/175/1 106/195/1 107/176/1
f 96/166/3 108/197/3 101/178/3
f 88/168/1 97/170/1 98/179/1
f 81/181/15 92/192/15 93/182/15
f 79/184/1 94/175/1 95/177/1
f 85/186/15 99/190/15 100/169/15
f 78/173/15 91/172/15 96/166/15
f 86/189/2 98/242/2 99/190/2
f 79/184/3 80/183/3 93/182/3
f 82/191/2 95/243/2 92/192/2
f 84/165/1 89/167/1 90/193/1
f 106/195/1 118/223/1 119/196/1
f 108/197/3 120/222/3 113/198/3
f 101/178/1 113/198/1 114/199/1
f 91/172/2 90/241/2 102/201/2
f 97/170/1 109/174/1 110/203/1
f 92/192/2 95/243/2 107/204/2
f 92/192/16 104/205/16 105/206/16
f 99/190/2 98/242/2 110/207/2
f 91/172/16 103/202/16 108/197/16
f 93/182/3 105/206/3 106/195/3
f 99/190/16 111/208/16 112/209/16
f 89/167/1 101/178/1 102/200/1
f 119/196/4 118/223/4 117/210/4
f 114/199/4 113/198/4 120/212/4
f 122/214/4 121/217/4 124/215/4
f 112/209/3 124/224/3 121/217/3
f 102/201/2 114/244/2 115/218/2
f 109/174/1 121/217/1 122/214/1
f 107/204/2 119/245/2 116/219/2
f 104/205/6 116/219/6 117/220/6
f 110/207/2 122/246/2 123/221/2
f 103/202/6 115/218/6 120/222/6
f 105/206/3 117/220/3 118/223/3
f 111/208/6 123/221/6 124/224/6
